<svg id="my-svg" width="100%" xmlns="http://www.w3.org/2000/svg" xmlns:xlink="http://www.w3.org/1999/xlink" class="classDiagram" style="max-width: 1930.53px; background-color: white;" viewBox="0 0 1930.52734375 512" role="graphics-document document" aria-roledescription="class"><style>#my-svg{font-family:"trebuchet ms",verdana,arial,sans-serif;font-size:16px;fill:#333;}@keyframes edge-animation-frame{from{stroke-dashoffset:0;}}@keyframes dash{to{stroke-dashoffset:0;}}#my-svg .edge-animation-slow{stroke-dasharray:9,5!important;stroke-dashoffset:900;animation:dash 50s linear infinite;stroke-linecap:round;}#my-svg .edge-animation-fast{stroke-dasharray:9,5!important;stroke-dashoffset:900;animation:dash 20s linear infinite;stroke-linecap:round;}#my-svg .error-icon{fill:#552222;}#my-svg .error-text{fill:#552222;stroke:#552222;}#my-svg .edge-thickness-normal{stroke-width:1px;}#my-svg .edge-thickness-thick{stroke-width:3.5px;}#my-svg .edge-pattern-solid{stroke-dasharray:0;}#my-svg .edge-thickness-invisible{stroke-width:0;fill:none;}#my-svg .edge-pattern-dashed{stroke-dasharray:3;}#my-svg .edge-pattern-dotted{stroke-dasharray:2;}#my-svg .marker{fill:#333333;stroke:#333333;}#my-svg .marker.cross{stroke:#333333;}#my-svg svg{font-family:"trebuchet ms",verdana,arial,sans-serif;font-size:16px;}#my-svg p{margin:0;}#my-svg g.classGroup text{fill:#9370DB;stroke:none;font-family:"trebuchet ms",verdana,arial,sans-serif;font-size:10px;}#my-svg g.classGroup text .title{font-weight:bolder;}#my-svg .nodeLabel,#my-svg .edgeLabel{color:#131300;}#my-svg .edgeLabel .label rect{fill:#ECECFF;}#my-svg .label text{fill:#131300;}#my-svg .labelBkg{background:#ECECFF;}#my-svg .edgeLabel .label span{background:#ECECFF;}#my-svg .classTitle{font-weight:bolder;}#my-svg .node rect,#my-svg .node circle,#my-svg .node ellipse,#my-svg .node polygon,#my-svg .node path{fill:#ECECFF;stroke:#9370DB;stroke-width:1px;}#my-svg .divider{stroke:#9370DB;stroke-width:1;}#my-svg g.clickable{cursor:pointer;}#my-svg g.classGroup rect{fill:#ECECFF;stroke:#9370DB;}#my-svg g.classGroup line{stroke:#9370DB;stroke-width:1;}#my-svg .classLabel .box{stroke:none;stroke-width:0;fill:#ECECFF;opacity:0.5;}#my-svg .classLabel .label{fill:#9370DB;font-size:10px;}#my-svg .relation{stroke:#333333;stroke-width:1;fill:none;}#my-svg .dashed-line{stroke-dasharray:3;}#my-svg .dotted-line{stroke-dasharray:1 2;}#my-svg #compositionStart,#my-svg .composition{fill:#333333!important;stroke:#333333!important;stroke-width:1;}#my-svg #compositionEnd,#my-svg .composition{fill:#333333!important;stroke:#333333!important;stroke-width:1;}#my-svg #dependencyStart,#my-svg .dependency{fill:#333333!important;stroke:#333333!important;stroke-width:1;}#my-svg #dependencyStart,#my-svg .dependency{fill:#333333!important;stroke:#333333!important;stroke-width:1;}#my-svg #extensionStart,#my-svg .extension{fill:transparent!important;stroke:#333333!important;stroke-width:1;}#my-svg #extensionEnd,#my-svg .extension{fill:transparent!important;stroke:#333333!important;stroke-width:1;}#my-svg #aggregationStart,#my-svg .aggregation{fill:transparent!important;stroke:#333333!important;stroke-width:1;}#my-svg #aggregationEnd,#my-svg .aggregation{fill:transparent!important;stroke:#333333!important;stroke-width:1;}#my-svg #lollipopStart,#my-svg .lollipop{fill:#ECECFF!important;stroke:#333333!important;stroke-width:1;}#my-svg #lollipopEnd,#my-svg .lollipop{fill:#ECECFF!important;stroke:#333333!important;stroke-width:1;}#my-svg .edgeTerminals{font-size:11px;line-height:initial;}#my-svg .classTitleText{text-anchor:middle;font-size:18px;fill:#333;}#my-svg .label-icon{display:inline-block;height:1em;overflow:visible;vertical-align:-0.125em;}#my-svg .node .label-icon path{fill:currentColor;stroke:revert;stroke-width:revert;}#my-svg :root{--mermaid-font-family:"trebuchet ms",verdana,arial,sans-serif;}</style><g><defs><marker id="my-svg_class-aggregationStart" class="marker aggregation class" refX="18" refY="7" markerWidth="190" markerHeight="240" orient="auto"><path d="M 18,7 L9,13 L1,7 L9,1 Z"/></marker></defs><defs><marker id="my-svg_class-aggregationEnd" class="marker aggregation class" refX="1" refY="7" markerWidth="20" markerHeight="28" orient="auto"><path d="M 18,7 L9,13 L1,7 L9,1 Z"/></marker></defs><defs><marker id="my-svg_class-extensionStart" class="marker extension class" refX="18" refY="7" markerWidth="190" markerHeight="240" orient="auto"><path d="M 1,7 L18,13 V 1 Z"/></marker></defs><defs><marker id="my-svg_class-extensionEnd" class="marker extension class" refX="1" refY="7" markerWidth="20" markerHeight="28" orient="auto"><path d="M 1,1 V 13 L18,7 Z"/></marker></defs><defs><marker id="my-svg_class-compositionStart" class="marker composition class" refX="18" refY="7" markerWidth="190" markerHeight="240" orient="auto"><path d="M 18,7 L9,13 L1,7 L9,1 Z"/></marker></defs><defs><marker id="my-svg_class-compositionEnd" class="marker composition class" refX="1" refY="7" markerWidth="20" markerHeight="28" orient="auto"><path d="M 18,7 L9,13 L1,7 L9,1 Z"/></marker></defs><defs><marker id="my-svg_class-dependencyStart" class="marker dependency class" refX="6" refY="7" markerWidth="190" markerHeight="240" orient="auto"><path d="M 5,7 L9,13 L1,7 L9,1 Z"/></marker></defs><defs><marker id="my-svg_class-dependencyEnd" class="marker dependency class" refX="13" refY="7" markerWidth="20" markerHeight="28" orient="auto"><path d="M 18,7 L9,13 L14,7 L9,1 Z"/></marker></defs><defs><marker id="my-svg_class-lollipopStart" class="marker lollipop class" refX="13" refY="7" markerWidth="190" markerHeight="240" orient="auto"><circle stroke="black" fill="transparent" cx="7" cy="7" r="6"/></marker></defs><defs><marker id="my-svg_class-lollipopEnd" class="marker lollipop class" refX="1" refY="7" markerWidth="190" markerHeight="240" orient="auto"><circle stroke="black" fill="transparent" cx="7" cy="7" r="6"/></marker></defs><g class="root"><g class="clusters"/><g class="edgePaths"><path d="M387.504,150.434L374.615,153.861C361.726,157.289,335.949,164.145,323.061,171.739C310.172,179.333,310.172,187.667,310.172,191.833L310.172,196" id="id_IRobotEngine_DirectEngine_1" class="edge-thickness-normal edge-pattern-dashed relation" style=";;;" data-edge="true" data-et="edge" data-id="id_IRobotEngine_DirectEngine_1" data-points="W3sieCI6NDA0LjE3NDMyNjc5NTIxMjgsInkiOjE0Nn0seyJ4IjozMTAuMTcxODc1LCJ5IjoxNzF9LHsieCI6MzEwLjE3MTg3NSwieSI6MTk2fV0=" marker-start="url(#my-svg_class-extensionStart)"/><path d="M939.738,150.434L952.627,153.861C965.516,157.289,991.293,164.145,1004.182,172.739C1017.07,181.333,1017.07,191.667,1017.07,196.833L1017.07,202" id="id_IRobotEngine_CplxEngine1_2" class="edge-thickness-normal edge-pattern-dashed relation" style=";;;" data-edge="true" data-et="edge" data-id="id_IRobotEngine_CplxEngine1_2" data-points="W3sieCI6OTIzLjA2Nzg2MDcwNDc4NzIsInkiOjE0Nn0seyJ4IjoxMDE3LjA3MDMxMjUsInkiOjE3MX0seyJ4IjoxMDE3LjA3MDMxMjUsInkiOjIwMn1d" marker-start="url(#my-svg_class-extensionStart)"/><path d="M645.29,318.517L607.484,324.264C569.679,330.012,494.068,341.506,456.262,351.42C418.457,361.333,418.457,369.667,418.457,373.833L418.457,378" id="id_CplxEngine1_MotionLogic_3" class="edge-thickness-normal edge-pattern-solid relation" style=";;;" data-edge="true" data-et="edge" data-id="id_CplxEngine1_MotionLogic_3" data-points="W3sieCI6NjYyLjM0Mzc1LCJ5IjozMTUuOTI0ODI2MjU4NjA1NX0seyJ4Ijo0MTguNDU3MDMxMjUsInkiOjM1M30seyJ4Ijo0MTguNDU3MDMxMjUsInkiOjM3OH1d" marker-start="url(#my-svg_class-compositionStart)"/><path d="M1017.07,339.25L1017.07,341.542C1017.07,343.833,1017.07,348.417,1017.07,354.875C1017.07,361.333,1017.07,369.667,1017.07,373.833L1017.07,378" id="id_CplxEngine1_TurretLogic_4" class="edge-thickness-normal edge-pattern-solid relation" style=";;;" data-edge="true" data-et="edge" data-id="id_CplxEngine1_TurretLogic_4" data-points="W3sieCI6MTAxNy4wNzAzMTI1LCJ5IjozMjJ9LHsieCI6MTAxNy4wNzAzMTI1LCJ5IjozNTN9LHsieCI6MTAxNy4wNzAzMTI1LCJ5IjozNzh9XQ==" marker-start="url(#my-svg_class-compositionStart)"/><path d="M1388.841,320.022L1424.059,325.518C1459.277,331.014,1529.712,342.007,1564.93,351.67C1600.148,361.333,1600.148,369.667,1600.148,373.833L1600.148,378" id="id_CplxEngine1_ShooterLogic_5" class="edge-thickness-normal edge-pattern-solid relation" style=";;;" data-edge="true" data-et="edge" data-id="id_CplxEngine1_ShooterLogic_5" data-points="W3sieCI6MTM3MS43OTY4NzUsInkiOjMxNy4zNjE1NjQ0MzQ0NDAxfSx7IngiOjE2MDAuMTQ4NDM3NSwieSI6MzUzfSx7IngiOjE2MDAuMTQ4NDM3NSwieSI6Mzc4fV0=" marker-start="url(#my-svg_class-compositionStart)"/></g><g class="edgeLabels"><g class="edgeLabel"><g class="label" data-id="id_IRobotEngine_DirectEngine_1" transform="translate(0, 0)"><foreignObject width="0" height="0"><div xmlns="http://www.w3.org/1999/xhtml" class="labelBkg" style="display: table-cell; white-space: nowrap; line-height: 1.5; max-width: 200px; text-align: center;"><span class="edgeLabel"></span></div></foreignObject></g></g><g class="edgeLabel"><g class="label" data-id="id_IRobotEngine_CplxEngine1_2" transform="translate(0, 0)"><foreignObject width="0" height="0"><div xmlns="http://www.w3.org/1999/xhtml" class="labelBkg" style="display: table-cell; white-space: nowrap; line-height: 1.5; max-width: 200px; text-align: center;"><span class="edgeLabel"></span></div></foreignObject></g></g><g class="edgeLabel"><g class="label" data-id="id_CplxEngine1_MotionLogic_3" transform="translate(0, 0)"><foreignObject width="0" height="0"><div xmlns="http://www.w3.org/1999/xhtml" class="labelBkg" style="display: table-cell; white-space: nowrap; line-height: 1.5; max-width: 200px; text-align: center;"><span class="edgeLabel"></span></div></foreignObject></g></g><g class="edgeLabel"><g class="label" data-id="id_CplxEngine1_TurretLogic_4" transform="translate(0, 0)"><foreignObject width="0" height="0"><div xmlns="http://www.w3.org/1999/xhtml" class="labelBkg" style="display: table-cell; white-space: nowrap; line-height: 1.5; max-width: 200px; text-align: center;"><span class="edgeLabel"></span></div></foreignObject></g></g><g class="edgeLabel"><g class="label" data-id="id_CplxEngine1_ShooterLogic_5" transform="translate(0, 0)"><foreignObject width="0" height="0"><div xmlns="http://www.w3.org/1999/xhtml" class="labelBkg" style="display: table-cell; white-space: nowrap; line-height: 1.5; max-width: 200px; text-align: center;"><span class="edgeLabel"></span></div></foreignObject></g></g></g><g class="nodes"><g class="node default" id="classId-IRobotEngine-0" transform="translate(663.62109375, 77)"><g class="basic label-container"><path d="M-536.99609375 -69 L536.99609375 -69 L536.99609375 69 L-536.99609375 69" stroke="none" stroke-width="0" fill="#ECECFF" style=""/><path d="M-536.99609375 -69 C-190.11014144846104 -69, 156.77581085307793 -69, 536.99609375 -69 M-536.99609375 -69 C-183.87103233658638 -69, 169.25402907682724 -69, 536.99609375 -69 M536.99609375 -69 C536.99609375 -19.655905184482116, 536.99609375 29.68818963103577, 536.99609375 69 M536.99609375 -69 C536.99609375 -17.663805533015292, 536.99609375 33.672388933969415, 536.99609375 69 M536.99609375 69 C303.3685752766001 69, 69.7410568032002 69, -536.99609375 69 M536.99609375 69 C139.0769725166757 69, -258.8421487166486 69, -536.99609375 69 M-536.99609375 69 C-536.99609375 14.860356766341326, -536.99609375 -39.27928646731735, -536.99609375 -69 M-536.99609375 69 C-536.99609375 27.35161390909606, -536.99609375 -14.296772181807881, -536.99609375 -69" stroke="#9370DB" stroke-width="1.3" fill="none" stroke-dasharray="0 0" style=""/></g><g class="annotation-group text" transform="translate(0, -45)"/><g class="label-group text" transform="translate(-51.9921875, -45)"><g class="label" style="font-weight: bolder" transform="translate(0,-12)"><foreignObject width="103.984375" height="24"><div xmlns="http://www.w3.org/1999/xhtml" style="display: table-cell; white-space: nowrap; line-height: 1.5; max-width: 140px; text-align: center;"><span class="nodeLabel markdown-node-label" style=""><p>IRobotEngine</p></span></div></foreignObject></g></g><g class="members-group text" transform="translate(-524.99609375, 3)"/><g class="methods-group text" transform="translate(-524.99609375, 33)"><g class="label" style="" transform="translate(0,-24)"><foreignObject width="998" height="48"><div xmlns="http://www.w3.org/1999/xhtml" style="display: table; white-space: break-spaces; line-height: 1.5; max-width: 998px; text-align: center; width: 998px;"><span class="nodeLabel markdown-node-label" style=""><p>+String name(); +WorldSnapshot sense(RobotState); +void act(RequestBatch); +RobotAction action(); +List&lt;RequestStatus&gt; drainStatuses()</p></span></div></foreignObject></g></g><g class="divider" style=""><path d="M-536.99609375 -21 C-178.7611626828438 -21, 179.4737683843124 -21, 536.99609375 -21 M-536.99609375 -21 C-111.70303425393666 -21, 313.59002524212667 -21, 536.99609375 -21" stroke="#9370DB" stroke-width="1.3" fill="none" stroke-dasharray="0 0" style=""/></g><g class="divider" style=""><path d="M-536.99609375 3 C-213.28007365567493 3, 110.43594643865015 3, 536.99609375 3 M-536.99609375 3 C-127.52591971104721 3, 281.9442543279056 3, 536.99609375 3" stroke="#9370DB" stroke-width="1.3" fill="none" stroke-dasharray="0 0" style=""/></g></g><g class="node default" id="classId-DirectEngine-1" transform="translate(310.171875, 262)"><g class="basic label-container"><path d="M-302.171875 -66 L302.171875 -66 L302.171875 66 L-302.171875 66" stroke="none" stroke-width="0" fill="#ECECFF" style=""/><path d="M-302.171875 -66 C-99.31954659227367 -66, 103.53278181545267 -66, 302.171875 -66 M-302.171875 -66 C-93.57439386557277 -66, 115.02308726885445 -66, 302.171875 -66 M302.171875 -66 C302.171875 -22.564834995085832, 302.171875 20.870330009828336, 302.171875 66 M302.171875 -66 C302.171875 -27.62656478542148, 302.171875 10.746870429157042, 302.171875 66 M302.171875 66 C158.60026678246285 66, 15.028658564925706 66, -302.171875 66 M302.171875 66 C141.35861800738624 66, -19.45463898522752 66, -302.171875 66 M-302.171875 66 C-302.171875 30.956872866588142, -302.171875 -4.086254266823715, -302.171875 -66 M-302.171875 66 C-302.171875 16.366595588803676, -302.171875 -33.26680882239265, -302.171875 -66" stroke="#9370DB" stroke-width="1.3" fill="none" stroke-dasharray="0 0" style=""/></g><g class="annotation-group text" transform="translate(0, -42)"/><g class="label-group text" transform="translate(-49.34375, -42)"><g class="label" style="font-weight: bolder" transform="translate(0,-12)"><foreignObject width="98.6875" height="24"><div xmlns="http://www.w3.org/1999/xhtml" style="display: table-cell; white-space: nowrap; line-height: 1.5; max-width: 135px; text-align: center;"><span class="nodeLabel markdown-node-label" style=""><p>DirectEngine</p></span></div></foreignObject></g></g><g class="members-group text" transform="translate(-290.171875, 6)"><g class="label" style="" transform="translate(0,-24)"><foreignObject width="531" height="48"><div xmlns="http://www.w3.org/1999/xhtml" style="display: table; white-space: break-spaces; line-height: 1.5; max-width: 531px; text-align: center; width: 531px;"><span class="nodeLabel markdown-node-label" style=""><p>-Subsystems subsystems; -DirectMap map; -Job driveJob; -Job shooterJob</p></span></div></foreignObject></g></g><g class="methods-group text" transform="translate(-290.171875, 78)"/><g class="divider" style=""><path d="M-302.171875 -18 C-106.29608250024032 -18, 89.57970999951937 -18, 302.171875 -18 M-302.171875 -18 C-169.7348138321011 -18, -37.29775266420222 -18, 302.171875 -18" stroke="#9370DB" stroke-width="1.3" fill="none" stroke-dasharray="0 0" style=""/></g><g class="divider" style=""><path d="M-302.171875 54 C-174.51386146478654 54, -46.85584792957306 54, 302.171875 54 M-302.171875 54 C-118.062433555051 54, 66.047007889898 54, 302.171875 54" stroke="#9370DB" stroke-width="1.3" fill="none" stroke-dasharray="0 0" style=""/></g></g><g class="node default" id="classId-CplxEngine1-2" transform="translate(1017.0703125, 262)"><g class="basic label-container"><path d="M-354.7265625 -60 L354.7265625 -60 L354.7265625 60 L-354.7265625 60" stroke="none" stroke-width="0" fill="#ECECFF" style=""/><path d="M-354.7265625 -60 C-178.36360247185942 -60, -2.0006424437188457 -60, 354.7265625 -60 M-354.7265625 -60 C-207.89738888616844 -60, -61.068215272336886 -60, 354.7265625 -60 M354.7265625 -60 C354.7265625 -15.393268905448565, 354.7265625 29.21346218910287, 354.7265625 60 M354.7265625 -60 C354.7265625 -13.85718100059237, 354.7265625 32.28563799881526, 354.7265625 60 M354.7265625 60 C176.54061351849214 60, -1.6453354630157264 60, -354.7265625 60 M354.7265625 60 C195.78254659612227 60, 36.83853069224455 60, -354.7265625 60 M-354.7265625 60 C-354.7265625 20.87419999875175, -354.7265625 -18.251600002496502, -354.7265625 -60 M-354.7265625 60 C-354.7265625 31.58603844857882, -354.7265625 3.1720768971576376, -354.7265625 -60" stroke="#9370DB" stroke-width="1.3" fill="none" stroke-dasharray="0 0" style=""/></g><g class="annotation-group text" transform="translate(0, -36)"/><g class="label-group text" transform="translate(-48.453125, -36)"><g class="label" style="font-weight: bolder" transform="translate(0,-12)"><foreignObject width="96.90625" height="24"><div xmlns="http://www.w3.org/1999/xhtml" style="display: table-cell; white-space: nowrap; line-height: 1.5; max-width: 134px; text-align: center;"><span class="nodeLabel markdown-node-label" style=""><p>CplxEngine1</p></span></div></foreignObject></g></g><g class="members-group text" transform="translate(-342.7265625, 12)"><g class="label" style="" transform="translate(0,-12)"><foreignObject width="637" height="24"><div xmlns="http://www.w3.org/1999/xhtml" style="display: table-cell; white-space: nowrap; line-height: 1.5; max-width: 641px; text-align: center;"><span class="nodeLabel markdown-node-label" style=""><p>-MotionLogic motion; -TurretLogic turret; -ShooterLogic shooter; -Subsystems subsystems</p></span></div></foreignObject></g></g><g class="methods-group text" transform="translate(-342.7265625, 60)"/><g class="divider" style=""><path d="M-354.7265625 -12 C-135.70757545543017 -12, 83.31141158913965 -12, 354.7265625 -12 M-354.7265625 -12 C-120.12647053338924 -12, 114.47362143322152 -12, 354.7265625 -12" stroke="#9370DB" stroke-width="1.3" fill="none" stroke-dasharray="0 0" style=""/></g><g class="divider" style=""><path d="M-354.7265625 36 C-89.70828910226959 36, 175.30998429546082 36, 354.7265625 36 M-354.7265625 36 C-164.7705037205572 36, 25.185555058885598 36, 354.7265625 36" stroke="#9370DB" stroke-width="1.3" fill="none" stroke-dasharray="0 0" style=""/></g></g><g class="node default" id="classId-MotionLogic-3" transform="translate(418.45703125, 441)"><g class="basic label-container"><path d="M-337.9140625 -63 L337.9140625 -63 L337.9140625 63 L-337.9140625 63" stroke="none" stroke-width="0" fill="#ECECFF" style=""/><path d="M-337.9140625 -63 C-137.67949151801074 -63, 62.55507946397853 -63, 337.9140625 -63 M-337.9140625 -63 C-169.56710594590777 -63, -1.2201493918155393 -63, 337.9140625 -63 M337.9140625 -63 C337.9140625 -31.337691227340905, 337.9140625 0.32461754531819054, 337.9140625 63 M337.9140625 -63 C337.9140625 -30.40166372516385, 337.9140625 2.1966725496723, 337.9140625 63 M337.9140625 63 C162.52592332409841 63, -12.862215851803171 63, -337.9140625 63 M337.9140625 63 C130.87006961353842 63, -76.17392327292316 63, -337.9140625 63 M-337.9140625 63 C-337.9140625 35.11843472195, -337.9140625 7.236869443900005, -337.9140625 -63 M-337.9140625 63 C-337.9140625 12.7397289534047, -337.9140625 -37.5205420931906, -337.9140625 -63" stroke="#9370DB" stroke-width="1.3" fill="none" stroke-dasharray="0 0" style=""/></g><g class="annotation-group text" transform="translate(0, -39)"/><g class="label-group text" transform="translate(-47.546875, -39)"><g class="label" style="font-weight: bolder" transform="translate(0,-12)"><foreignObject width="95.09375" height="24"><div xmlns="http://www.w3.org/1999/xhtml" style="display: table-cell; white-space: nowrap; line-height: 1.5; max-width: 134px; text-align: center;"><span class="nodeLabel markdown-node-label" style=""><p>MotionLogic</p></span></div></foreignObject></g></g><g class="members-group text" transform="translate(-325.9140625, 9)"/><g class="methods-group text" transform="translate(-325.9140625, 39)"><g class="label" style="" transform="translate(0,-12)"><foreignObject width="604.28125" height="24"><div xmlns="http://www.w3.org/1999/xhtml" style="display: table-cell; white-space: nowrap; line-height: 1.5; max-width: 648px; text-align: center;"><span class="nodeLabel markdown-node-label" style=""><p>+act(RequestStream,List&lt;Request&gt;,int[],List); +cancelAll(List); +resetPose(Pose,List)</p></span></div></foreignObject></g></g><g class="divider" style=""><path d="M-337.9140625 -15 C-82.47355602731488 -15, 172.96695044537023 -15, 337.9140625 -15 M-337.9140625 -15 C-180.1209317727149 -15, -22.327801045429794 -15, 337.9140625 -15" stroke="#9370DB" stroke-width="1.3" fill="none" stroke-dasharray="0 0" style=""/></g><g class="divider" style=""><path d="M-337.9140625 9 C-105.78642182100108 9, 126.34121885799783 9, 337.9140625 9 M-337.9140625 9 C-153.9932662264267 9, 29.927530047146604 9, 337.9140625 9" stroke="#9370DB" stroke-width="1.3" fill="none" stroke-dasharray="0 0" style=""/></g></g><g class="node default" id="classId-TurretLogic-4" transform="translate(1017.0703125, 441)"><g class="basic label-container"><path d="M-210.69921875 -63 L210.69921875 -63 L210.69921875 63 L-210.69921875 63" stroke="none" stroke-width="0" fill="#ECECFF" style=""/><path d="M-210.69921875 -63 C-65.46902908647974 -63, 79.76116057704053 -63, 210.69921875 -63 M-210.69921875 -63 C-74.09974615785504 -63, 62.499726434289926 -63, 210.69921875 -63 M210.69921875 -63 C210.69921875 -20.252071411369954, 210.69921875 22.495857177260092, 210.69921875 63 M210.69921875 -63 C210.69921875 -24.80410750436822, 210.69921875 13.391784991263563, 210.69921875 63 M210.69921875 63 C111.60412217204812 63, 12.509025594096244 63, -210.69921875 63 M210.69921875 63 C109.07929824806725 63, 7.459377746134493 63, -210.69921875 63 M-210.69921875 63 C-210.69921875 17.30037577568809, -210.69921875 -28.399248448623823, -210.69921875 -63 M-210.69921875 63 C-210.69921875 18.48705182823521, -210.69921875 -26.02589634352958, -210.69921875 -63" stroke="#9370DB" stroke-width="1.3" fill="none" stroke-dasharray="0 0" style=""/></g><g class="annotation-group text" transform="translate(0, -39)"/><g class="label-group text" transform="translate(-43.8515625, -39)"><g class="label" style="font-weight: bolder" transform="translate(0,-12)"><foreignObject width="87.703125" height="24"><div xmlns="http://www.w3.org/1999/xhtml" style="display: table-cell; white-space: nowrap; line-height: 1.5; max-width: 127px; text-align: center;"><span class="nodeLabel markdown-node-label" style=""><p>TurretLogic</p></span></div></foreignObject></g></g><g class="members-group text" transform="translate(-198.69921875, 9)"/><g class="methods-group text" transform="translate(-198.69921875, 39)"><g class="label" style="" transform="translate(0,-12)"><foreignObject width="353.546875" height="24"><div xmlns="http://www.w3.org/1999/xhtml" style="display: table-cell; white-space: nowrap; line-height: 1.5; max-width: 377px; text-align: center;"><span class="nodeLabel markdown-node-label" style=""><p>+update(Pose); +holdForShot(boolean); +locked()</p></span></div></foreignObject></g></g><g class="divider" style=""><path d="M-210.69921875 -15 C-118.77671489307889 -15, -26.85421103615778 -15, 210.69921875 -15 M-210.69921875 -15 C-121.72850499681898 -15, -32.75779124363797 -15, 210.69921875 -15" stroke="#9370DB" stroke-width="1.3" fill="none" stroke-dasharray="0 0" style=""/></g><g class="divider" style=""><path d="M-210.69921875 9 C-96.70746878006786 9, 17.284281189864288 9, 210.69921875 9 M-210.69921875 9 C-122.31307279449894 9, -33.92692683899787 9, 210.69921875 9" stroke="#9370DB" stroke-width="1.3" fill="none" stroke-dasharray="0 0" style=""/></g></g><g class="node default" id="classId-ShooterLogic-5" transform="translate(1600.1484375, 441)"><g class="basic label-container"><path d="M-322.37890625 -63 L322.37890625 -63 L322.37890625 63 L-322.37890625 63" stroke="none" stroke-width="0" fill="#ECECFF" style=""/><path d="M-322.37890625 -63 C-120.13535428580334 -63, 82.10819767839331 -63, 322.37890625 -63 M-322.37890625 -63 C-190.08625373351435 -63, -57.79360121702871 -63, 322.37890625 -63 M322.37890625 -63 C322.37890625 -23.108976009275594, 322.37890625 16.782047981448812, 322.37890625 63 M322.37890625 -63 C322.37890625 -20.069306486869124, 322.37890625 22.861387026261752, 322.37890625 63 M322.37890625 63 C101.11245933899102 63, -120.15398757201797 63, -322.37890625 63 M322.37890625 63 C73.88126027805924 63, -174.6163856938815 63, -322.37890625 63 M-322.37890625 63 C-322.37890625 31.958738388643738, -322.37890625 0.9174767772874759, -322.37890625 -63 M-322.37890625 63 C-322.37890625 21.178618372108005, -322.37890625 -20.64276325578399, -322.37890625 -63" stroke="#9370DB" stroke-width="1.3" fill="none" stroke-dasharray="0 0" style=""/></g><g class="annotation-group text" transform="translate(0, -39)"/><g class="label-group text" transform="translate(-51.5546875, -39)"><g class="label" style="font-weight: bolder" transform="translate(0,-12)"><foreignObject width="103.109375" height="24"><div xmlns="http://www.w3.org/1999/xhtml" style="display: table-cell; white-space: nowrap; line-height: 1.5; max-width: 137px; text-align: center;"><span class="nodeLabel markdown-node-label" style=""><p>ShooterLogic</p></span></div></foreignObject></g></g><g class="members-group text" transform="translate(-310.37890625, 9)"/><g class="methods-group text" transform="translate(-310.37890625, 39)"><g class="label" style="" transform="translate(0,-12)"><foreignObject width="569.203125" height="24"><div xmlns="http://www.w3.org/1999/xhtml" style="display: table-cell; white-space: nowrap; line-height: 1.5; max-width: 585px; text-align: center;"><span class="nodeLabel markdown-node-label" style=""><p>+requestShot(int,int); +requestSpinUp(int,double); +update(List); +cancelAll(List)</p></span></div></foreignObject></g></g><g class="divider" style=""><path d="M-322.37890625 -15 C-92.54428890933877 -15, 137.29032843132245 -15, 322.37890625 -15 M-322.37890625 -15 C-89.10096981174249 -15, 144.17696662651502 -15, 322.37890625 -15" stroke="#9370DB" stroke-width="1.3" fill="none" stroke-dasharray="0 0" style=""/></g><g class="divider" style=""><path d="M-322.37890625 9 C-97.19104353677994 9, 127.99681917644011 9, 322.37890625 9 M-322.37890625 9 C-76.66698884265205 9, 169.0449285646959 9, 322.37890625 9" stroke="#9370DB" stroke-width="1.3" fill="none" stroke-dasharray="0 0" style=""/></g></g></g></g></g></svg>