<svg id="my-svg" width="100%" xmlns="http://www.w3.org/2000/svg" xmlns:xlink="http://www.w3.org/1999/xlink" class="classDiagram" style="max-width: 2247.31px; background-color: white;" viewBox="0 0 2247.3125 464" role="graphics-document document" aria-roledescription="class"><style>#my-svg{font-family:"trebuchet ms",verdana,arial,sans-serif;font-size:16px;fill:#333;}@keyframes edge-animation-frame{from{stroke-dashoffset:0;}}@keyframes dash{to{stroke-dashoffset:0;}}#my-svg .edge-animation-slow{stroke-dasharray:9,5!important;stroke-dashoffset:900;animation:dash 50s linear infinite;stroke-linecap:round;}#my-svg .edge-animation-fast{stroke-dasharray:9,5!important;stroke-dashoffset:900;animation:dash 20s linear infinite;stroke-linecap:round;}#my-svg .error-icon{fill:#552222;}#my-svg .error-text{fill:#552222;stroke:#552222;}#my-svg .edge-thickness-normal{stroke-width:1px;}#my-svg .edge-thickness-thick{stroke-width:3.5px;}#my-svg .edge-pattern-solid{stroke-dasharray:0;}#my-svg .edge-thickness-invisible{stroke-width:0;fill:none;}#my-svg .edge-pattern-dashed{stroke-dasharray:3;}#my-svg .edge-pattern-dotted{stroke-dasharray:2;}#my-svg .marker{fill:#333333;stroke:#333333;}#my-svg .marker.cross{stroke:#333333;}#my-svg svg{font-family:"trebuchet ms",verdana,arial,sans-serif;font-size:16px;}#my-svg p{margin:0;}#my-svg g.classGroup text{fill:#9370DB;stroke:none;font-family:"trebuchet ms",verdana,arial,sans-serif;font-size:10px;}#my-svg g.classGroup text .title{font-weight:bolder;}#my-svg .nodeLabel,#my-svg .edgeLabel{color:#131300;}#my-svg .edgeLabel .label rect{fill:#ECECFF;}#my-svg .label text{fill:#131300;}#my-svg .labelBkg{background:#ECECFF;}#my-svg .edgeLabel .label span{background:#ECECFF;}#my-svg .classTitle{font-weight:bolder;}#my-svg .node rect,#my-svg .node circle,#my-svg .node ellipse,#my-svg .node polygon,#my-svg .node path{fill:#ECECFF;stroke:#9370DB;stroke-width:1px;}#my-svg .divider{stroke:#9370DB;stroke-width:1;}#my-svg g.clickable{cursor:pointer;}#my-svg g.classGroup rect{fill:#ECECFF;stroke:#9370DB;}#my-svg g.classGroup line{stroke:#9370DB;stroke-width:1;}#my-svg .classLabel .box{stroke:none;stroke-width:0;fill:#ECECFF;opacity:0.5;}#my-svg .classLabel .label{fill:#9370DB;font-size:10px;}#my-svg .relation{stroke:#333333;stroke-width:1;fill:none;}#my-svg .dashed-line{stroke-dasharray:3;}#my-svg .dotted-line{stroke-dasharray:1 2;}#my-svg #compositionStart,#my-svg .composition{fill:#333333!important;stroke:#333333!important;stroke-width:1;}#my-svg #compositionEnd,#my-svg .composition{fill:#333333!important;stroke:#333333!important;stroke-width:1;}#my-svg #dependencyStart,#my-svg .dependency{fill:#333333!important;stroke:#333333!important;stroke-width:1;}#my-svg #dependencyStart,#my-svg .dependency{fill:#333333!important;stroke:#333333!important;stroke-width:1;}#my-svg #extensionStart,#my-svg .extension{fill:transparent!important;stroke:#333333!important;stroke-width:1;}#my-svg #extensionEnd,#my-svg .extension{fill:transparent!important;stroke:#333333!important;stroke-width:1;}#my-svg #aggregationStart,#my-svg .aggregation{fill:transparent!important;stroke:#333333!important;stroke-width:1;}#my-svg #aggregationEnd,#my-svg .aggregation{fill:transparent!important;stroke:#333333!important;stroke-width:1;}#my-svg #lollipopStart,#my-svg .lollipop{fill:#ECECFF!important;stroke:#333333!important;stroke-width:1;}#my-svg #lollipopEnd,#my-svg .lollipop{fill:#ECECFF!important;stroke:#333333!important;stroke-width:1;}#my-svg .edgeTerminals{font-size:11px;line-height:initial;}#my-svg .classTitleText{text-anchor:middle;font-size:18px;fill:#333;}#my-svg .label-icon{display:inline-block;height:1em;overflow:visible;vertical-align:-0.125em;}#my-svg .node .label-icon path{fill:currentColor;stroke:revert;stroke-width:revert;}#my-svg :root{--mermaid-font-family:"trebuchet ms",verdana,arial,sans-serif;}</style><g><defs><marker id="my-svg_class-aggregationStart" class="marker aggregation class" refX="18" refY="7" markerWidth="190" markerHeight="240" orient="auto"><path d="M 18,7 L9,13 L1,7 L9,1 Z"/></marker></defs><defs><marker id="my-svg_class-aggregationEnd" class="marker aggregation class" refX="1" refY="7" markerWidth="20" markerHeight="28" orient="auto"><path d="M 18,7 L9,13 L1,7 L9,1 Z"/></marker></defs><defs><marker id="my-svg_class-extensionStart" class="marker extension class" refX="18" refY="7" markerWidth="190" markerHeight="240" orient="auto"><path d="M 1,7 L18,13 V 1 Z"/></marker></defs><defs><marker id="my-svg_class-extensionEnd" class="marker extension class" refX="1" refY="7" markerWidth="20" markerHeight="28" orient="auto"><path d="M 1,1 V 13 L18,7 Z"/></marker></defs><defs><marker id="my-svg_class-compositionStart" class="marker composition class" refX="18" refY="7" markerWidth="190" markerHeight="240" orient="auto"><path d="M 18,7 L9,13 L1,7 L9,1 Z"/></marker></defs><defs><marker id="my-svg_class-compositionEnd" class="marker composition class" refX="1" refY="7" markerWidth="20" markerHeight="28" orient="auto"><path d="M 18,7 L9,13 L1,7 L9,1 Z"/></marker></defs><defs><marker id="my-svg_class-dependencyStart" class="marker dependency class" refX="6" refY="7" markerWidth="190" markerHeight="240" orient="auto"><path d="M 5,7 L9,13 L1,7 L9,1 Z"/></marker></defs><defs><marker id="my-svg_class-dependencyEnd" class="marker dependency class" refX="13" refY="7" markerWidth="20" markerHeight="28" orient="auto"><path d="M 18,7 L9,13 L14,7 L9,1 Z"/></marker></defs><defs><marker id="my-svg_class-lollipopStart" class="marker lollipop class" refX="13" refY="7" markerWidth="190" markerHeight="240" orient="auto"><circle stroke="black" fill="transparent" cx="7" cy="7" r="6"/></marker></defs><defs><marker id="my-svg_class-lollipopEnd" class="marker lollipop class" refX="1" refY="7" markerWidth="190" markerHeight="240" orient="auto"><circle stroke="black" fill="transparent" cx="7" cy="7" r="6"/></marker></defs><g class="root"><g class="clusters"/><g class="edgePaths"><path d="M876.522,100.352L796.705,110.127C716.887,119.902,557.252,139.451,477.878,153.392C398.504,167.333,399.39,175.667,399.833,179.833L400.277,184" id="id_ISubsystem_IDrive_1" class="edge-thickness-normal edge-pattern-solid relation" style=";;;" data-edge="true" data-et="edge" data-id="id_ISubsystem_IDrive_1" data-points="W3sieCI6ODkzLjY0NDUzMTI1LCJ5Ijo5OC4yNTU0NjQ1MzI4NTc4N30seyJ4IjozOTcuNjE3MTg3NSwieSI6MTU5fSx7IngiOjQwMC4yNzY3NjE5NjgwODUxLCJ5IjoxODR9XQ==" marker-start="url(#my-svg_class-extensionStart)"/><path d="M876.917,131.286L858.583,135.905C840.249,140.524,803.58,149.762,803.895,159.548C804.21,169.333,841.509,179.667,860.158,184.833L878.807,190" id="id_ISubsystem_IShooter_2" class="edge-thickness-normal edge-pattern-solid relation" style=";;;" data-edge="true" data-et="edge" data-id="id_ISubsystem_IShooter_2" data-points="W3sieCI6ODkzLjY0NDUzMTI1LCJ5IjoxMjcuMDcxNTI4MDIyNDExMjN9LHsieCI6NzY2LjkxMjEwOTM3NSwieSI6MTU5fSx7IngiOjg3OC44MDcyNDMxODQ4NDA0LCJ5IjoxOTB9XQ==" marker-start="url(#my-svg_class-extensionStart)"/><path d="M1288.724,140.441L1296.408,143.534C1304.092,146.627,1319.461,152.814,1348.391,163.422C1377.322,174.03,1419.813,189.06,1441.059,196.575L1462.305,204.09" id="id_ISubsystem_IIntake_3" class="edge-thickness-normal edge-pattern-solid relation" style=";;;" data-edge="true" data-et="edge" data-id="id_ISubsystem_IIntake_3" data-points="W3sieCI6MTI3Mi43MjEyNTc5OTAwNTY4LCJ5IjoxMzR9LHsieCI6MTMzNC44MzAwNzgxMjUsInkiOjE1OX0seyJ4IjoxNDYyLjMwNDY4NzUsInkiOjIwNC4wOTAxMjczNjc0Njk0OH1d" marker-start="url(#my-svg_class-extensionStart)"/><path d="M1355.884,101.19L1432.375,110.825C1508.866,120.46,1661.848,139.73,1749.566,154.532C1837.283,169.333,1859.737,179.667,1870.963,184.833L1882.19,190" id="id_ISubsystem_ITurret_4" class="edge-thickness-normal edge-pattern-solid relation" style=";;;" data-edge="true" data-et="edge" data-id="id_ISubsystem_ITurret_4" data-points="W3sieCI6MTMzOC43Njk1MzEyNSwieSI6OTkuMDM0NDMxNTY4Nzk0NjR9LHsieCI6MTgxNC44MzAwNzgxMjUsInkiOjE1OX0seyJ4IjoxODgyLjE4OTc2NDc5Mzg4MywieSI6MTkwfV0=" marker-start="url(#my-svg_class-extensionStart)"/><path d="M407.617,339.25L407.617,340.542C407.617,341.833,407.617,344.417,407.617,349.875C407.617,355.333,407.617,363.667,407.617,367.833L407.617,372" id="id_IDrive_PedroDrive_5" class="edge-thickness-normal edge-pattern-dashed relation" style=";;;" data-edge="true" data-et="edge" data-id="id_IDrive_PedroDrive_5" data-points="W3sieCI6NDA3LjYxNzE4NzUsInkiOjMyMn0seyJ4Ijo0MDcuNjE3MTg3NSwieSI6MzQ3fSx7IngiOjQwNy42MTcxODc1LCJ5IjozNzJ9XQ==" marker-start="url(#my-svg_class-extensionStart)"/><path d="M1106.207,333.25L1106.207,335.542C1106.207,337.833,1106.207,342.417,1106.207,348.875C1106.207,355.333,1106.207,363.667,1106.207,367.833L1106.207,372" id="id_IShooter_StubShooter_6" class="edge-thickness-normal edge-pattern-dashed relation" style=";;;" data-edge="true" data-et="edge" data-id="id_IShooter_StubShooter_6" data-points="W3sieCI6MTEwNi4yMDcwMzEyNSwieSI6MzE2fSx7IngiOjExMDYuMjA3MDMxMjUsInkiOjM0N30seyJ4IjoxMTA2LjIwNzAzMTI1LCJ5IjozNzJ9XQ==" marker-start="url(#my-svg_class-extensionStart)"/><path d="M1600.578,333.25L1600.578,335.542C1600.578,337.833,1600.578,342.417,1600.578,348.875C1600.578,355.333,1600.578,363.667,1600.578,367.833L1600.578,372" id="id_IIntake_StubIntake_7" class="edge-thickness-normal edge-pattern-dashed relation" style=";;;" data-edge="true" data-et="edge" data-id="id_IIntake_StubIntake_7" data-points="W3sieCI6MTYwMC41NzgxMjUsInkiOjMxNn0seyJ4IjoxNjAwLjU3ODEyNSwieSI6MzQ3fSx7IngiOjE2MDAuNTc4MTI1LCJ5IjozNzJ9XQ==" marker-start="url(#my-svg_class-extensionStart)"/><path d="M2019.082,333.25L2019.082,335.542C2019.082,337.833,2019.082,342.417,2019.082,348.875C2019.082,355.333,2019.082,363.667,2019.082,367.833L2019.082,372" id="id_ITurret_StubTurret_8" class="edge-thickness-normal edge-pattern-dashed relation" style=";;;" data-edge="true" data-et="edge" data-id="id_ITurret_StubTurret_8" data-points="W3sieCI6MjAxOS4wODIwMzEyNSwieSI6MzE2fSx7IngiOjIwMTkuMDgyMDMxMjUsInkiOjM0N30seyJ4IjoyMDE5LjA4MjAzMTI1LCJ5IjozNzJ9XQ==" marker-start="url(#my-svg_class-extensionStart)"/><path d="M1371.601,97.973L1267.486,108.144C1163.372,118.315,955.142,138.658,835.987,152.995C716.833,167.333,686.753,175.667,671.714,179.833L656.674,184" id="id_Subsystems_IDrive_9" class="edge-thickness-normal edge-pattern-solid relation" style=";;;" data-edge="true" data-et="edge" data-id="id_Subsystems_IDrive_9" data-points="W3sieCI6MTM4OC43Njk1MzEyNSwieSI6OTYuMjk1NzE4ODIzNTE2Njd9LHsieCI6NzQ2LjkxMjEwOTM3NSwieSI6MTU5fSx7IngiOjY1Ni42NzQwOTgyMzgwMzE5LCJ5IjoxODR9XQ==" marker-start="url(#my-svg_class-aggregationStart)"/><path d="M1404.067,135.409L1389.194,139.341C1374.321,143.273,1344.576,151.136,1318.236,160.235C1291.896,169.333,1268.963,179.667,1257.496,184.833L1246.029,190" id="id_Subsystems_IShooter_10" class="edge-thickness-normal edge-pattern-solid relation" style=";;;" data-edge="true" data-et="edge" data-id="id_Subsystems_IShooter_10" data-points="W3sieCI6MTQyMC43NDQyMjk0MDM0MDksInkiOjEzMX0seyJ4IjoxMzE0LjgzMDA3ODEyNSwieSI6MTU5fSx7IngiOjEyNDYuMDI4ODYwNTM4NTYzOCwieSI6MTkwfV0=" marker-start="url(#my-svg_class-aggregationStart)"/><path d="M1762.821,139.855L1768.156,143.046C1773.491,146.236,1784.16,152.618,1778.818,160.976C1773.476,169.333,1752.122,179.667,1741.445,184.833L1730.768,190" id="id_Subsystems_IIntake_11" class="edge-thickness-normal edge-pattern-solid relation" style=";;;" data-edge="true" data-et="edge" data-id="id_Subsystems_IIntake_11" data-points="W3sieCI6MTc0OC4wMTY5NTY2NzYxMzYzLCJ5IjoxMzF9LHsieCI6MTc5NC44MzAwNzgxMjUsInkiOjE1OX0seyJ4IjoxNzMwLjc2ODI2Mzc5NjU0MjcsInkiOjE5MH1d" marker-start="url(#my-svg_class-aggregationStart)"/><path d="M1917.701,134.977L1934.598,138.981C1951.495,142.985,1985.288,150.992,2002.185,160.163C2019.082,169.333,2019.082,179.667,2019.082,184.833L2019.082,190" id="id_Subsystems_ITurret_12" class="edge-thickness-normal edge-pattern-solid relation" style=";;;" data-edge="true" data-et="edge" data-id="id_Subsystems_ITurret_12" data-points="W3sieCI6MTkwMC45MTYwMTU2MjUsInkiOjEzMX0seyJ4IjoyMDE5LjA4MjAzMTI1LCJ5IjoxNTl9LHsieCI6MjAxOS4wODIwMzEyNSwieSI6MTkwfV0=" marker-start="url(#my-svg_class-aggregationStart)"/></g><g class="edgeLabels"><g class="edgeLabel"><g class="label" data-id="id_ISubsystem_IDrive_1" transform="translate(0, 0)"><foreignObject width="0" height="0"><div xmlns="http://www.w3.org/1999/xhtml" class="labelBkg" style="display: table-cell; white-space: nowrap; line-height: 1.5; max-width: 200px; text-align: center;"><span class="edgeLabel"></span></div></foreignObject></g></g><g class="edgeLabel"><g class="label" data-id="id_ISubsystem_IShooter_2" transform="translate(0, 0)"><foreignObject width="0" height="0"><div xmlns="http://www.w3.org/1999/xhtml" class="labelBkg" style="display: table-cell; white-space: nowrap; line-height: 1.5; max-width: 200px; text-align: center;"><span class="edgeLabel"></span></div></foreignObject></g></g><g class="edgeLabel"><g class="label" data-id="id_ISubsystem_IIntake_3" transform="translate(0, 0)"><foreignObject width="0" height="0"><div xmlns="http://www.w3.org/1999/xhtml" class="labelBkg" style="display: table-cell; white-space: nowrap; line-height: 1.5; max-width: 200px; text-align: center;"><span class="edgeLabel"></span></div></foreignObject></g></g><g class="edgeLabel"><g class="label" data-id="id_ISubsystem_ITurret_4" transform="translate(0, 0)"><foreignObject width="0" height="0"><div xmlns="http://www.w3.org/1999/xhtml" class="labelBkg" style="display: table-cell; white-space: nowrap; line-height: 1.5; max-width: 200px; text-align: center;"><span class="edgeLabel"></span></div></foreignObject></g></g><g class="edgeLabel"><g class="label" data-id="id_IDrive_PedroDrive_5" transform="translate(0, 0)"><foreignObject width="0" height="0"><div xmlns="http://www.w3.org/1999/xhtml" class="labelBkg" style="display: table-cell; white-space: nowrap; line-height: 1.5; max-width: 200px; text-align: center;"><span class="edgeLabel"></span></div></foreignObject></g></g><g class="edgeLabel"><g class="label" data-id="id_IShooter_StubShooter_6" transform="translate(0, 0)"><foreignObject width="0" height="0"><div xmlns="http://www.w3.org/1999/xhtml" class="labelBkg" style="display: table-cell; white-space: nowrap; line-height: 1.5; max-width: 200px; text-align: center;"><span class="edgeLabel"></span></div></foreignObject></g></g><g class="edgeLabel"><g class="label" data-id="id_IIntake_StubIntake_7" transform="translate(0, 0)"><foreignObject width="0" height="0"><div xmlns="http://www.w3.org/1999/xhtml" class="labelBkg" style="display: table-cell; white-space: nowrap; line-height: 1.5; max-width: 200px; text-align: center;"><span class="edgeLabel"></span></div></foreignObject></g></g><g class="edgeLabel"><g class="label" data-id="id_ITurret_StubTurret_8" transform="translate(0, 0)"><foreignObject width="0" height="0"><div xmlns="http://www.w3.org/1999/xhtml" class="labelBkg" style="display: table-cell; white-space: nowrap; line-height: 1.5; max-width: 200px; text-align: center;"><span class="edgeLabel"></span></div></foreignObject></g></g><g class="edgeLabel"><g class="label" data-id="id_Subsystems_IDrive_9" transform="translate(0, 0)"><foreignObject width="0" height="0"><div xmlns="http://www.w3.org/1999/xhtml" class="labelBkg" style="display: table-cell; white-space: nowrap; line-height: 1.5; max-width: 200px; text-align: center;"><span class="edgeLabel"></span></div></foreignObject></g></g><g class="edgeLabel"><g class="label" data-id="id_Subsystems_IShooter_10" transform="translate(0, 0)"><foreignObject width="0" height="0"><div xmlns="http://www.w3.org/1999/xhtml" class="labelBkg" style="display: table-cell; white-space: nowrap; line-height: 1.5; max-width: 200px; text-align: center;"><span class="edgeLabel"></span></div></foreignObject></g></g><g class="edgeLabel"><g class="label" data-id="id_Subsystems_IIntake_11" transform="translate(0, 0)"><foreignObject width="0" height="0"><div xmlns="http://www.w3.org/1999/xhtml" class="labelBkg" style="display: table-cell; white-space: nowrap; line-height: 1.5; max-width: 200px; text-align: center;"><span class="edgeLabel"></span></div></foreignObject></g></g><g class="edgeLabel"><g class="label" data-id="id_Subsystems_ITurret_12" transform="translate(0, 0)"><foreignObject width="0" height="0"><div xmlns="http://www.w3.org/1999/xhtml" class="labelBkg" style="display: table-cell; white-space: nowrap; line-height: 1.5; max-width: 200px; text-align: center;"><span class="edgeLabel"></span></div></foreignObject></g></g></g><g class="nodes"><g class="node default" id="classId-ISubsystem-0" transform="translate(1116.20703125, 71)"><g class="basic label-container"><path d="M-222.5625 -63 L222.5625 -63 L222.5625 63 L-222.5625 63" stroke="none" stroke-width="0" fill="#ECECFF" style=""/><path d="M-222.5625 -63 C-115.5392629562604 -63, -8.516025912520803 -63, 222.5625 -63 M-222.5625 -63 C-84.85236340555949 -63, 52.857773188881026 -63, 222.5625 -63 M222.5625 -63 C222.5625 -16.07428586649241, 222.5625 30.85142826701518, 222.5625 63 M222.5625 -63 C222.5625 -27.833359081459065, 222.5625 7.33328183708187, 222.5625 63 M222.5625 63 C64.12459495035193 63, -94.31331009929613 63, -222.5625 63 M222.5625 63 C119.94090349945218 63, 17.319306998904352 63, -222.5625 63 M-222.5625 63 C-222.5625 14.577422879822436, -222.5625 -33.84515424035513, -222.5625 -63 M-222.5625 63 C-222.5625 30.0142761675475, -222.5625 -2.971447664905, -222.5625 -63" stroke="#9370DB" stroke-width="1.3" fill="none" stroke-dasharray="0 0" style=""/></g><g class="annotation-group text" transform="translate(0, -39)"/><g class="label-group text" transform="translate(-44.90625, -39)"><g class="label" style="font-weight: bolder" transform="translate(0,-12)"><foreignObject width="89.8125" height="24"><div xmlns="http://www.w3.org/1999/xhtml" style="display: table-cell; white-space: nowrap; line-height: 1.5; max-width: 125px; text-align: center;"><span class="nodeLabel markdown-node-label" style=""><p>ISubsystem</p></span></div></foreignObject></g></g><g class="members-group text" transform="translate(-210.5625, 9)"/><g class="methods-group text" transform="translate(-210.5625, 39)"><g class="label" style="" transform="translate(0,-12)"><foreignObject width="376.21875" height="24"><div xmlns="http://www.w3.org/1999/xhtml" style="display: table-cell; white-space: nowrap; line-height: 1.5; max-width: 400px; text-align: center;"><span class="nodeLabel markdown-node-label" style=""><p>+observe(RobotState); +update(RobotAction.Builder)</p></span></div></foreignObject></g></g><g class="divider" style=""><path d="M-222.5625 -15 C-119.92765502172111 -15, -17.292810043442216 -15, 222.5625 -15 M-222.5625 -15 C-59.07865813428663 -15, 104.40518373142675 -15, 222.5625 -15" stroke="#9370DB" stroke-width="1.3" fill="none" stroke-dasharray="0 0" style=""/></g><g class="divider" style=""><path d="M-222.5625 9 C-98.49439372136655 9, 25.5737125572669 9, 222.5625 9 M-222.5625 9 C-88.48000072138163 9, 45.60249855723674 9, 222.5625 9" stroke="#9370DB" stroke-width="1.3" fill="none" stroke-dasharray="0 0" style=""/></g></g><g class="node default" id="classId-IDrive-1" transform="translate(407.6171875, 253)"><g class="basic label-container"><path d="M-399.6171875 -69 L399.6171875 -69 L399.6171875 69 L-399.6171875 69" stroke="none" stroke-width="0" fill="#ECECFF" style=""/><path d="M-399.6171875 -69 C-136.96822234781592 -69, 125.68074280436815 -69, 399.6171875 -69 M-399.6171875 -69 C-205.99822101517753 -69, -12.37925453035507 -69, 399.6171875 -69 M399.6171875 -69 C399.6171875 -18.935418660768903, 399.6171875 31.129162678462194, 399.6171875 69 M399.6171875 -69 C399.6171875 -40.978048402603726, 399.6171875 -12.956096805207451, 399.6171875 69 M399.6171875 69 C197.4281350661874 69, -4.760917367625211 69, -399.6171875 69 M399.6171875 69 C176.47607077005333 69, -46.66504595989335 69, -399.6171875 69 M-399.6171875 69 C-399.6171875 26.007361827901704, -399.6171875 -16.985276344196592, -399.6171875 -69 M-399.6171875 69 C-399.6171875 18.566407066670934, -399.6171875 -31.867185866658133, -399.6171875 -69" stroke="#9370DB" stroke-width="1.3" fill="none" stroke-dasharray="0 0" style=""/></g><g class="annotation-group text" transform="translate(0, -45)"/><g class="label-group text" transform="translate(-22.234375, -45)"><g class="label" style="font-weight: bolder" transform="translate(0,-12)"><foreignObject width="44.46875" height="24"><div xmlns="http://www.w3.org/1999/xhtml" style="display: table-cell; white-space: nowrap; line-height: 1.5; max-width: 92px; text-align: center;"><span class="nodeLabel markdown-node-label" style=""><p>IDrive</p></span></div></foreignObject></g></g><g class="members-group text" transform="translate(-387.6171875, 3)"/><g class="methods-group text" transform="translate(-387.6171875, 33)"><g class="label" style="" transform="translate(0,-24)"><foreignObject width="753" height="48"><div xmlns="http://www.w3.org/1999/xhtml" style="display: table; white-space: break-spaces; line-height: 1.5; max-width: 753px; text-align: center; width: 753px;"><span class="nodeLabel markdown-node-label" style=""><p>+manual(vx,vy,omega); +follow(PathRequest); +turnTo(h); +stop(); +resetPose(Pose); +pathDone(); +pose()</p></span></div></foreignObject></g></g><g class="divider" style=""><path d="M-399.6171875 -21 C-115.75007327296356 -21, 168.11704095407288 -21, 399.6171875 -21 M-399.6171875 -21 C-102.13165140082776 -21, 195.35388469834447 -21, 399.6171875 -21" stroke="#9370DB" stroke-width="1.3" fill="none" stroke-dasharray="0 0" style=""/></g><g class="divider" style=""><path d="M-399.6171875 3 C-228.54199740113023 3, -57.46680730226046 3, 399.6171875 3 M-399.6171875 3 C-228.78857456523977 3, -57.95996163047954 3, 399.6171875 3" stroke="#9370DB" stroke-width="1.3" fill="none" stroke-dasharray="0 0" style=""/></g></g><g class="node default" id="classId-IShooter-2" transform="translate(1106.20703125, 253)"><g class="basic label-container"><path d="M-248.97265625 -63 L248.97265625 -63 L248.97265625 63 L-248.97265625 63" stroke="none" stroke-width="0" fill="#ECECFF" style=""/><path d="M-248.97265625 -63 C-105.27127793815959 -63, 38.43010037368083 -63, 248.97265625 -63 M-248.97265625 -63 C-126.41742820593434 -63, -3.862200161868685 -63, 248.97265625 -63 M248.97265625 -63 C248.97265625 -23.863895066718598, 248.97265625 15.272209866562804, 248.97265625 63 M248.97265625 -63 C248.97265625 -29.479463284436726, 248.97265625 4.041073431126549, 248.97265625 63 M248.97265625 63 C64.12420377703947 63, -120.72424869592106 63, -248.97265625 63 M248.97265625 63 C113.83498373777246 63, -21.302688774455078 63, -248.97265625 63 M-248.97265625 63 C-248.97265625 28.712961320722656, -248.97265625 -5.574077358554689, -248.97265625 -63 M-248.97265625 63 C-248.97265625 33.670911929568774, -248.97265625 4.3418238591375555, -248.97265625 -63" stroke="#9370DB" stroke-width="1.3" fill="none" stroke-dasharray="0 0" style=""/></g><g class="annotation-group text" transform="translate(0, -39)"/><g class="label-group text" transform="translate(-32.4453125, -39)"><g class="label" style="font-weight: bolder" transform="translate(0,-12)"><foreignObject width="64.890625" height="24"><div xmlns="http://www.w3.org/1999/xhtml" style="display: table-cell; white-space: nowrap; line-height: 1.5; max-width: 106px; text-align: center;"><span class="nodeLabel markdown-node-label" style=""><p>IShooter</p></span></div></foreignObject></g></g><g class="members-group text" transform="translate(-236.97265625, 9)"/><g class="methods-group text" transform="translate(-236.97265625, 39)"><g class="label" style="" transform="translate(0,-12)"><foreignObject width="441.5" height="24"><div xmlns="http://www.w3.org/1999/xhtml" style="display: table-cell; white-space: nowrap; line-height: 1.5; max-width: 466px; text-align: center;"><span class="nodeLabel markdown-node-label" style=""><p>+spinUp(rpm); +spinDown(); +isReady(); +feed(); +isFeeding()</p></span></div></foreignObject></g></g><g class="divider" style=""><path d="M-248.97265625 -15 C-101.29846492648329 -15, 46.37572639703342 -15, 248.97265625 -15 M-248.97265625 -15 C-121.49065671011441 -15, 5.991342829771185 -15, 248.97265625 -15" stroke="#9370DB" stroke-width="1.3" fill="none" stroke-dasharray="0 0" style=""/></g><g class="divider" style=""><path d="M-248.97265625 9 C-67.6668313362303 9, 113.6389935775394 9, 248.97265625 9 M-248.97265625 9 C-94.30282720639465 9, 60.367001837210694 9, 248.97265625 9" stroke="#9370DB" stroke-width="1.3" fill="none" stroke-dasharray="0 0" style=""/></g></g><g class="node default" id="classId-IIntake-3" transform="translate(1600.578125, 253)"><g class="basic label-container"><path d="M-138.2734375 -63 L138.2734375 -63 L138.2734375 63 L-138.2734375 63" stroke="none" stroke-width="0" fill="#ECECFF" style=""/><path d="M-138.2734375 -63 C-82.33215839013141 -63, -26.39087928026281 -63, 138.2734375 -63 M-138.2734375 -63 C-55.921263378371364 -63, 26.43091074325727 -63, 138.2734375 -63 M138.2734375 -63 C138.2734375 -32.13775148487157, 138.2734375 -1.275502969743144, 138.2734375 63 M138.2734375 -63 C138.2734375 -28.178412829228492, 138.2734375 6.643174341543016, 138.2734375 63 M138.2734375 63 C78.02121405627378 63, 17.76899061254757 63, -138.2734375 63 M138.2734375 63 C59.37059751107145 63, -19.532242477857096 63, -138.2734375 63 M-138.2734375 63 C-138.2734375 16.794812205446462, -138.2734375 -29.410375589107076, -138.2734375 -63 M-138.2734375 63 C-138.2734375 32.19811386496881, -138.2734375 1.3962277299376211, -138.2734375 -63" stroke="#9370DB" stroke-width="1.3" fill="none" stroke-dasharray="0 0" style=""/></g><g class="annotation-group text" transform="translate(0, -39)"/><g class="label-group text" transform="translate(-25.34375, -39)"><g class="label" style="font-weight: bolder" transform="translate(0,-12)"><foreignObject width="50.6875" height="24"><div xmlns="http://www.w3.org/1999/xhtml" style="display: table-cell; white-space: nowrap; line-height: 1.5; max-width: 95px; text-align: center;"><span class="nodeLabel markdown-node-label" style=""><p>IIntake</p></span></div></foreignObject></g></g><g class="members-group text" transform="translate(-126.2734375, 9)"/><g class="methods-group text" transform="translate(-126.2734375, 39)"><g class="label" style="" transform="translate(0,-12)"><foreignObject width="227.203125" height="24"><div xmlns="http://www.w3.org/1999/xhtml" style="display: table-cell; white-space: nowrap; line-height: 1.5; max-width: 266px; text-align: center;"><span class="nodeLabel markdown-node-label" style=""><p>+run(power); +stop(); +hasBall()</p></span></div></foreignObject></g></g><g class="divider" style=""><path d="M-138.2734375 -15 C-54.79411330107095 -15, 28.6852108978581 -15, 138.2734375 -15 M-138.2734375 -15 C-77.38259087649848 -15, -16.491744252996952 -15, 138.2734375 -15" stroke="#9370DB" stroke-width="1.3" fill="none" stroke-dasharray="0 0" style=""/></g><g class="divider" style=""><path d="M-138.2734375 9 C-37.1605449446601 9, 63.952347610679794 9, 138.2734375 9 M-138.2734375 9 C-35.86734494042503 9, 66.53874761914994 9, 138.2734375 9" stroke="#9370DB" stroke-width="1.3" fill="none" stroke-dasharray="0 0" style=""/></g></g><g class="node default" id="classId-ITurret-4" transform="translate(2019.08203125, 253)"><g class="basic label-container"><path d="M-220.23046875 -63 L220.23046875 -63 L220.23046875 63 L-220.23046875 63" stroke="none" stroke-width="0" fill="#ECECFF" style=""/><path d="M-220.23046875 -63 C-101.69630043155591 -63, 16.837867886888176 -63, 220.23046875 -63 M-220.23046875 -63 C-131.55053924669969 -63, -42.87060974339937 -63, 220.23046875 -63 M220.23046875 -63 C220.23046875 -18.95130877343935, 220.23046875 25.0973824531213, 220.23046875 63 M220.23046875 -63 C220.23046875 -26.804163861551146, 220.23046875 9.391672276897708, 220.23046875 63 M220.23046875 63 C98.38256985638442 63, -23.465329037231157 63, -220.23046875 63 M220.23046875 63 C101.5592551706442 63, -17.111958408711587 63, -220.23046875 63 M-220.23046875 63 C-220.23046875 14.676427964378775, -220.23046875 -33.64714407124245, -220.23046875 -63 M-220.23046875 63 C-220.23046875 28.255383506424863, -220.23046875 -6.489232987150274, -220.23046875 -63" stroke="#9370DB" stroke-width="1.3" fill="none" stroke-dasharray="0 0" style=""/></g><g class="annotation-group text" transform="translate(0, -39)"/><g class="label-group text" transform="translate(-24.7421875, -39)"><g class="label" style="font-weight: bolder" transform="translate(0,-12)"><foreignObject width="49.484375" height="24"><div xmlns="http://www.w3.org/1999/xhtml" style="display: table-cell; white-space: nowrap; line-height: 1.5; max-width: 95px; text-align: center;"><span class="nodeLabel markdown-node-label" style=""><p>ITurret</p></span></div></foreignObject></g></g><g class="members-group text" transform="translate(-208.23046875, 9)"/><g class="methods-group text" transform="translate(-208.23046875, 39)"><g class="label" style="" transform="translate(0,-12)"><foreignObject width="391.71875" height="24"><div xmlns="http://www.w3.org/1999/xhtml" style="display: table-cell; white-space: nowrap; line-height: 1.5; max-width: 420px; text-align: center;"><span class="nodeLabel markdown-node-label" style=""><p>+aimAt(x,y); +scan(); +hold(); +onTarget(); +angleRad()</p></span></div></foreignObject></g></g><g class="divider" style=""><path d="M-220.23046875 -15 C-74.96925065193315 -15, 70.2919674461337 -15, 220.23046875 -15 M-220.23046875 -15 C-82.35097060480317 -15, 55.52852754039367 -15, 220.23046875 -15" stroke="#9370DB" stroke-width="1.3" fill="none" stroke-dasharray="0 0" style=""/></g><g class="divider" style=""><path d="M-220.23046875 9 C-108.83654607348629 9, 2.5573766030274214 9, 220.23046875 9 M-220.23046875 9 C-54.065693046050484 9, 112.09908265789903 9, 220.23046875 9" stroke="#9370DB" stroke-width="1.3" fill="none" stroke-dasharray="0 0" style=""/></g></g><g class="node default" id="classId-PedroDrive-5" transform="translate(407.6171875, 414)"><g class="basic label-container"><path d="M-54.6875 -42 L54.6875 -42 L54.6875 42 L-54.6875 42" stroke="none" stroke-width="0" fill="#ECECFF" style=""/><path d="M-54.6875 -42 C-20.431352426154717 -42, 13.824795147690565 -42, 54.6875 -42 M-54.6875 -42 C-21.093401076584712 -42, 12.500697846830576 -42, 54.6875 -42 M54.6875 -42 C54.6875 -9.84122006114255, 54.6875 22.3175598777149, 54.6875 42 M54.6875 -42 C54.6875 -24.589496817676917, 54.6875 -7.178993635353834, 54.6875 42 M54.6875 42 C17.072554423279286 42, -20.54239115344143 42, -54.6875 42 M54.6875 42 C15.451637535279175 42, -23.78422492944165 42, -54.6875 42 M-54.6875 42 C-54.6875 12.621723619159198, -54.6875 -16.756552761681604, -54.6875 -42 M-54.6875 42 C-54.6875 21.487206148474282, -54.6875 0.9744122969485645, -54.6875 -42" stroke="#9370DB" stroke-width="1.3" fill="none" stroke-dasharray="0 0" style=""/></g><g class="annotation-group text" transform="translate(0, -18)"/><g class="label-group text" transform="translate(-42.6875, -18)"><g class="label" style="font-weight: bolder" transform="translate(0,-12)"><foreignObject width="85.375" height="24"><div xmlns="http://www.w3.org/1999/xhtml" style="display: table-cell; white-space: nowrap; line-height: 1.5; max-width: 124px; text-align: center;"><span class="nodeLabel markdown-node-label" style=""><p>PedroDrive</p></span></div></foreignObject></g></g><g class="members-group text" transform="translate(-42.6875, 30)"/><g class="methods-group text" transform="translate(-42.6875, 60)"/><g class="divider" style=""><path d="M-54.6875 6 C-27.326825954149903 6, 0.033848091700193095 6, 54.6875 6 M-54.6875 6 C-12.663565594323067 6, 29.360368811353865 6, 54.6875 6" stroke="#9370DB" stroke-width="1.3" fill="none" stroke-dasharray="0 0" style=""/></g><g class="divider" style=""><path d="M-54.6875 24 C-21.9054531533193 24, 10.8765936933614 24, 54.6875 24 M-54.6875 24 C-14.996140339717478 24, 24.695219320565045 24, 54.6875 24" stroke="#9370DB" stroke-width="1.3" fill="none" stroke-dasharray="0 0" style=""/></g></g><g class="node default" id="classId-StubShooter-6" transform="translate(1106.20703125, 414)"><g class="basic label-container"><path d="M-60 -42 L60 -42 L60 42 L-60 42" stroke="none" stroke-width="0" fill="#ECECFF" style=""/><path d="M-60 -42 C-25.247339773552234 -42, 9.505320452895532 -42, 60 -42 M-60 -42 C-31.262108659973702 -42, -2.524217319947404 -42, 60 -42 M60 -42 C60 -9.288403732597793, 60 23.423192534804414, 60 42 M60 -42 C60 -24.00081638688762, 60 -6.001632773775242, 60 42 M60 42 C34.31378408561271 42, 8.627568171225413 42, -60 42 M60 42 C24.702286197031263 42, -10.595427605937473 42, -60 42 M-60 42 C-60 22.3060968354176, -60 2.6121936708351967, -60 -42 M-60 42 C-60 14.814617048527662, -60 -12.370765902944676, -60 -42" stroke="#9370DB" stroke-width="1.3" fill="none" stroke-dasharray="0 0" style=""/></g><g class="annotation-group text" transform="translate(0, -18)"/><g class="label-group text" transform="translate(-48, -18)"><g class="label" style="font-weight: bolder" transform="translate(0,-12)"><foreignObject width="96" height="24"><div xmlns="http://www.w3.org/1999/xhtml" style="display: table-cell; white-space: nowrap; line-height: 1.5; max-width: 130px; text-align: center;"><span class="nodeLabel markdown-node-label" style=""><p>StubShooter</p></span></div></foreignObject></g></g><g class="members-group text" transform="translate(-48, 30)"/><g class="methods-group text" transform="translate(-48, 60)"/><g class="divider" style=""><path d="M-60 6 C-31.424758440434104 6, -2.849516880868208 6, 60 6 M-60 6 C-13.05323406594497 6, 33.89353186811006 6, 60 6" stroke="#9370DB" stroke-width="1.3" fill="none" stroke-dasharray="0 0" style=""/></g><g class="divider" style=""><path d="M-60 24 C-35.431460732151535 24, -10.86292146430307 24, 60 24 M-60 24 C-31.337116401725314 24, -2.6742328034506286 24, 60 24" stroke="#9370DB" stroke-width="1.3" fill="none" stroke-dasharray="0 0" style=""/></g></g><g class="node default" id="classId-StubIntake-7" transform="translate(1600.578125, 414)"><g class="basic label-container"><path d="M-52.8984375 -42 L52.8984375 -42 L52.8984375 42 L-52.8984375 42" stroke="none" stroke-width="0" fill="#ECECFF" style=""/><path d="M-52.8984375 -42 C-28.83285433171792 -42, -4.7672711634358365 -42, 52.8984375 -42 M-52.8984375 -42 C-28.399844557590963 -42, -3.901251615181927 -42, 52.8984375 -42 M52.8984375 -42 C52.8984375 -17.400809007831683, 52.8984375 7.198381984336635, 52.8984375 42 M52.8984375 -42 C52.8984375 -21.170188389248647, 52.8984375 -0.3403767784972942, 52.8984375 42 M52.8984375 42 C22.266912249408136 42, -8.364613001183727 42, -52.8984375 42 M52.8984375 42 C25.134751845353005 42, -2.62893380929399 42, -52.8984375 42 M-52.8984375 42 C-52.8984375 23.955031852744206, -52.8984375 5.910063705488412, -52.8984375 -42 M-52.8984375 42 C-52.8984375 15.238772390685892, -52.8984375 -11.522455218628217, -52.8984375 -42" stroke="#9370DB" stroke-width="1.3" fill="none" stroke-dasharray="0 0" style=""/></g><g class="annotation-group text" transform="translate(0, -18)"/><g class="label-group text" transform="translate(-40.8984375, -18)"><g class="label" style="font-weight: bolder" transform="translate(0,-12)"><foreignObject width="81.796875" height="24"><div xmlns="http://www.w3.org/1999/xhtml" style="display: table-cell; white-space: nowrap; line-height: 1.5; max-width: 119px; text-align: center;"><span class="nodeLabel markdown-node-label" style=""><p>StubIntake</p></span></div></foreignObject></g></g><g class="members-group text" transform="translate(-40.8984375, 30)"/><g class="methods-group text" transform="translate(-40.8984375, 60)"/><g class="divider" style=""><path d="M-52.8984375 6 C-23.61359227679552 6, 5.671252946408963 6, 52.8984375 6 M-52.8984375 6 C-11.812409770757085 6, 29.27361795848583 6, 52.8984375 6" stroke="#9370DB" stroke-width="1.3" fill="none" stroke-dasharray="0 0" style=""/></g><g class="divider" style=""><path d="M-52.8984375 24 C-27.552596940610425 24, -2.206756381220849 24, 52.8984375 24 M-52.8984375 24 C-11.34703609596803 24, 30.20436530806394 24, 52.8984375 24" stroke="#9370DB" stroke-width="1.3" fill="none" stroke-dasharray="0 0" style=""/></g></g><g class="node default" id="classId-StubTurret-8" transform="translate(2019.08203125, 414)"><g class="basic label-container"><path d="M-52.296875 -42 L52.296875 -42 L52.296875 42 L-52.296875 42" stroke="none" stroke-width="0" fill="#ECECFF" style=""/><path d="M-52.296875 -42 C-27.650979421774718 -42, -3.0050838435494356 -42, 52.296875 -42 M-52.296875 -42 C-11.571922716369713 -42, 29.153029567260575 -42, 52.296875 -42 M52.296875 -42 C52.296875 -11.828745764815462, 52.296875 18.342508470369076, 52.296875 42 M52.296875 -42 C52.296875 -11.960917054018442, 52.296875 18.078165891963117, 52.296875 42 M52.296875 42 C15.957973595259617 42, -20.380927809480767 42, -52.296875 42 M52.296875 42 C17.137471388501574 42, -18.021932222996853 42, -52.296875 42 M-52.296875 42 C-52.296875 20.34032357760483, -52.296875 -1.3193528447903375, -52.296875 -42 M-52.296875 42 C-52.296875 12.62714270263642, -52.296875 -16.74571459472716, -52.296875 -42" stroke="#9370DB" stroke-width="1.3" fill="none" stroke-dasharray="0 0" style=""/></g><g class="annotation-group text" transform="translate(0, -18)"/><g class="label-group text" transform="translate(-40.296875, -18)"><g class="label" style="font-weight: bolder" transform="translate(0,-12)"><foreignObject width="80.59375" height="24"><div xmlns="http://www.w3.org/1999/xhtml" style="display: table-cell; white-space: nowrap; line-height: 1.5; max-width: 119px; text-align: center;"><span class="nodeLabel markdown-node-label" style=""><p>StubTurret</p></span></div></foreignObject></g></g><g class="members-group text" transform="translate(-40.296875, 30)"/><g class="methods-group text" transform="translate(-40.296875, 60)"/><g class="divider" style=""><path d="M-52.296875 6 C-13.428222895143442 6, 25.440429209713116 6, 52.296875 6 M-52.296875 6 C-31.081728615306954 6, -9.866582230613908 6, 52.296875 6" stroke="#9370DB" stroke-width="1.3" fill="none" stroke-dasharray="0 0" style=""/></g><g class="divider" style=""><path d="M-52.296875 24 C-30.852201189289616 24, -9.407527378579232 24, 52.296875 24 M-52.296875 24 C-23.290743759434374 24, 5.715387481131252 24, 52.296875 24" stroke="#9370DB" stroke-width="1.3" fill="none" stroke-dasharray="0 0" style=""/></g></g><g class="node default" id="classId-Subsystems-9" transform="translate(1647.703125, 71)"><g class="basic label-container"><path d="M-258.93359375 -60 L258.93359375 -60 L258.93359375 60 L-258.93359375 60" stroke="none" stroke-width="0" fill="#ECECFF" style=""/><path d="M-258.93359375 -60 C-116.75435292409895 -60, 25.424887901802094 -60, 258.93359375 -60 M-258.93359375 -60 C-81.22947339134896 -60, 96.47464696730208 -60, 258.93359375 -60 M258.93359375 -60 C258.93359375 -35.01606276089678, 258.93359375 -10.03212552179356, 258.93359375 60 M258.93359375 -60 C258.93359375 -17.420670099077512, 258.93359375 25.158659801844976, 258.93359375 60 M258.93359375 60 C118.47002903417129 60, -21.99353568165742 60, -258.93359375 60 M258.93359375 60 C140.6749843036277 60, 22.41637485725539 60, -258.93359375 60 M-258.93359375 60 C-258.93359375 30.626983674258806, -258.93359375 1.2539673485176124, -258.93359375 -60 M-258.93359375 60 C-258.93359375 14.330787301067296, -258.93359375 -31.338425397865407, -258.93359375 -60" stroke="#9370DB" stroke-width="1.3" fill="none" stroke-dasharray="0 0" style=""/></g><g class="annotation-group text" transform="translate(0, -36)"/><g class="label-group text" transform="translate(-47.1328125, -36)"><g class="label" style="font-weight: bolder" transform="translate(0,-12)"><foreignObject width="94.265625" height="24"><div xmlns="http://www.w3.org/1999/xhtml" style="display: table-cell; white-space: nowrap; line-height: 1.5; max-width: 126px; text-align: center;"><span class="nodeLabel markdown-node-label" style=""><p>Subsystems</p></span></div></foreignObject></g></g><g class="members-group text" transform="translate(-246.93359375, 12)"><g class="label" style="" transform="translate(0,-12)"><foreignObject width="446.734375" height="24"><div xmlns="http://www.w3.org/1999/xhtml" style="display: table-cell; white-space: nowrap; line-height: 1.5; max-width: 473px; text-align: center;"><span class="nodeLabel markdown-node-label" style=""><p>+IDrive drive; +IShooter shooter; +IIntake intake; +ITurret turret</p></span></div></foreignObject></g></g><g class="methods-group text" transform="translate(-246.93359375, 60)"/><g class="divider" style=""><path d="M-258.93359375 -12 C-56.43940499563084 -12, 146.05478375873832 -12, 258.93359375 -12 M-258.93359375 -12 C-153.5517500929577 -12, -48.16990643591538 -12, 258.93359375 -12" stroke="#9370DB" stroke-width="1.3" fill="none" stroke-dasharray="0 0" style=""/></g><g class="divider" style=""><path d="M-258.93359375 36 C-58.73168118947859 36, 141.47023137104281 36, 258.93359375 36 M-258.93359375 36 C-89.78809678716974 36, 79.35740017566053 36, 258.93359375 36" stroke="#9370DB" stroke-width="1.3" fill="none" stroke-dasharray="0 0" style=""/></g></g></g></g></g></svg>