<svg id="my-svg" width="100%" xmlns="http://www.w3.org/2000/svg" xmlns:xlink="http://www.w3.org/1999/xlink" class="classDiagram" style="max-width: 1155.64px; background-color: white;" viewBox="0 0 1155.640625 670" role="graphics-document document" aria-roledescription="class"><style>#my-svg{font-family:"trebuchet ms",verdana,arial,sans-serif;font-size:16px;fill:#333;}@keyframes edge-animation-frame{from{stroke-dashoffset:0;}}@keyframes dash{to{stroke-dashoffset:0;}}#my-svg .edge-animation-slow{stroke-dasharray:9,5!important;stroke-dashoffset:900;animation:dash 50s linear infinite;stroke-linecap:round;}#my-svg .edge-animation-fast{stroke-dasharray:9,5!important;stroke-dashoffset:900;animation:dash 20s linear infinite;stroke-linecap:round;}#my-svg .error-icon{fill:#552222;}#my-svg .error-text{fill:#552222;stroke:#552222;}#my-svg .edge-thickness-normal{stroke-width:1px;}#my-svg .edge-thickness-thick{stroke-width:3.5px;}#my-svg .edge-pattern-solid{stroke-dasharray:0;}#my-svg .edge-thickness-invisible{stroke-width:0;fill:none;}#my-svg .edge-pattern-dashed{stroke-dasharray:3;}#my-svg .edge-pattern-dotted{stroke-dasharray:2;}#my-svg .marker{fill:#333333;stroke:#333333;}#my-svg .marker.cross{stroke:#333333;}#my-svg svg{font-family:"trebuchet ms",verdana,arial,sans-serif;font-size:16px;}#my-svg p{margin:0;}#my-svg g.classGroup text{fill:#9370DB;stroke:none;font-family:"trebuchet ms",verdana,arial,sans-serif;font-size:10px;}#my-svg g.classGroup text .title{font-weight:bolder;}#my-svg .nodeLabel,#my-svg .edgeLabel{color:#131300;}#my-svg .edgeLabel .label rect{fill:#ECECFF;}#my-svg .label text{fill:#131300;}#my-svg .labelBkg{background:#ECECFF;}#my-svg .edgeLabel .label span{background:#ECECFF;}#my-svg .classTitle{font-weight:bolder;}#my-svg .node rect,#my-svg .node circle,#my-svg .node ellipse,#my-svg .node polygon,#my-svg .node path{fill:#ECECFF;stroke:#9370DB;stroke-width:1px;}#my-svg .divider{stroke:#9370DB;stroke-width:1;}#my-svg g.clickable{cursor:pointer;}#my-svg g.classGroup rect{fill:#ECECFF;stroke:#9370DB;}#my-svg g.classGroup line{stroke:#9370DB;stroke-width:1;}#my-svg .classLabel .box{stroke:none;stroke-width:0;fill:#ECECFF;opacity:0.5;}#my-svg .classLabel .label{fill:#9370DB;font-size:10px;}#my-svg .relation{stroke:#333333;stroke-width:1;fill:none;}#my-svg .dashed-line{stroke-dasharray:3;}#my-svg .dotted-line{stroke-dasharray:1 2;}#my-svg #compositionStart,#my-svg .composition{fill:#333333!important;stroke:#333333!important;stroke-width:1;}#my-svg #compositionEnd,#my-svg .composition{fill:#333333!important;stroke:#333333!important;stroke-width:1;}#my-svg #dependencyStart,#my-svg .dependency{fill:#333333!important;stroke:#333333!important;stroke-width:1;}#my-svg #dependencyStart,#my-svg .dependency{fill:#333333!important;stroke:#333333!important;stroke-width:1;}#my-svg #extensionStart,#my-svg .extension{fill:transparent!important;stroke:#333333!important;stroke-width:1;}#my-svg #extensionEnd,#my-svg .extension{fill:transparent!important;stroke:#333333!important;stroke-width:1;}#my-svg #aggregationStart,#my-svg .aggregation{fill:transparent!important;stroke:#333333!important;stroke-width:1;}#my-svg #aggregationEnd,#my-svg .aggregation{fill:transparent!important;stroke:#333333!important;stroke-width:1;}#my-svg #lollipopStart,#my-svg .lollipop{fill:#ECECFF!important;stroke:#333333!important;stroke-width:1;}#my-svg #lollipopEnd,#my-svg .lollipop{fill:#ECECFF!important;stroke:#333333!important;stroke-width:1;}#my-svg .edgeTerminals{font-size:11px;line-height:initial;}#my-svg .classTitleText{text-anchor:middle;font-size:18px;fill:#333;}#my-svg .label-icon{display:inline-block;height:1em;overflow:visible;vertical-align:-0.125em;}#my-svg .node .label-icon path{fill:currentColor;stroke:revert;stroke-width:revert;}#my-svg :root{--mermaid-font-family:"trebuchet ms",verdana,arial,sans-serif;}</style><g><defs><marker id="my-svg_class-aggregationStart" class="marker aggregation class" refX="18" refY="7" markerWidth="190" markerHeight="240" orient="auto"><path d="M 18,7 L9,13 L1,7 L9,1 Z"/></marker></defs><defs><marker id="my-svg_class-aggregationEnd" class="marker aggregation class" refX="1" refY="7" markerWidth="20" markerHeight="28" orient="auto"><path d="M 18,7 L9,13 L1,7 L9,1 Z"/></marker></defs><defs><marker id="my-svg_class-extensionStart" class="marker extension class" refX="18" refY="7" markerWidth="190" markerHeight="240" orient="auto"><path d="M 1,7 L18,13 V 1 Z"/></marker></defs><defs><marker id="my-svg_class-extensionEnd" class="marker extension class" refX="1" refY="7" markerWidth="20" markerHeight="28" orient="auto"><path d="M 1,1 V 13 L18,7 Z"/></marker></defs><defs><marker id="my-svg_class-compositionStart" class="marker composition class" refX="18" refY="7" markerWidth="190" markerHeight="240" orient="auto"><path d="M 18,7 L9,13 L1,7 L9,1 Z"/></marker></defs><defs><marker id="my-svg_class-compositionEnd" class="marker composition class" refX="1" refY="7" markerWidth="20" markerHeight="28" orient="auto"><path d="M 18,7 L9,13 L1,7 L9,1 Z"/></marker></defs><defs><marker id="my-svg_class-dependencyStart" class="marker dependency class" refX="6" refY="7" markerWidth="190" markerHeight="240" orient="auto"><path d="M 5,7 L9,13 L1,7 L9,1 Z"/></marker></defs><defs><marker id="my-svg_class-dependencyEnd" class="marker dependency class" refX="13" refY="7" markerWidth="20" markerHeight="28" orient="auto"><path d="M 18,7 L9,13 L14,7 L9,1 Z"/></marker></defs><defs><marker id="my-svg_class-lollipopStart" class="marker lollipop class" refX="13" refY="7" markerWidth="190" markerHeight="240" orient="auto"><circle stroke="black" fill="transparent" cx="7" cy="7" r="6"/></marker></defs><defs><marker id="my-svg_class-lollipopEnd" class="marker lollipop class" refX="1" refY="7" markerWidth="190" markerHeight="240" orient="auto"><circle stroke="black" fill="transparent" cx="7" cy="7" r="6"/></marker></defs><g class="root"><g class="clusters"/><g class="edgePaths"><path d="M155.747,314.721L143.867,318.1C131.987,321.48,108.228,328.24,96.348,339.287C84.469,350.333,84.469,365.667,84.469,373.333L84.469,381" id="id_PhysicsBackend_PymunkBackend_1" class="edge-thickness-normal edge-pattern-dashed relation" style=";;;" data-edge="true" data-et="edge" data-id="id_PhysicsBackend_PymunkBackend_1" data-points="W3sieCI6MTcyLjMzODI5MDEyNzg0MDksInkiOjMxMH0seyJ4Ijo4NC40Njg3NSwieSI6MzM1fSx7IngiOjg0LjQ2ODc1LCJ5IjozODF9XQ==" marker-start="url(#my-svg_class-extensionStart)"/><path d="M305.015,321.051L302.229,323.376C299.443,325.701,293.87,330.35,291.083,340.342C288.297,350.333,288.297,365.667,288.297,373.333L288.297,381" id="id_PhysicsBackend_PyBulletBackend_2" class="edge-thickness-normal edge-pattern-dashed relation" style=";;;" data-edge="true" data-et="edge" data-id="id_PhysicsBackend_PyBulletBackend_2" data-points="W3sieCI6MzE4LjI2MDY5Nzc5ODI5NTQ0LCJ5IjozMTB9LHsieCI6Mjg4LjI5Njg3NSwieSI6MzM1fSx7IngiOjI4OC4yOTY4NzUsInkiOjM4MX1d" marker-start="url(#my-svg_class-extensionStart)"/><path d="M482.524,321.051L485.31,323.376C488.096,325.701,493.669,330.35,496.456,340.342C499.242,350.333,499.242,365.667,499.242,373.333L499.242,381" id="id_PhysicsBackend_KinematicBackend_3" class="edge-thickness-normal edge-pattern-dashed relation" style=";;;" data-edge="true" data-et="edge" data-id="id_PhysicsBackend_KinematicBackend_3" data-points="W3sieCI6NDY5LjI3ODM2NDcwMTcwNDU2LCJ5IjozMTB9LHsieCI6NDk5LjI0MjE4NzUsInkiOjMzNX0seyJ4Ijo0OTkuMjQyMTg3NSwieSI6MzgxfV0=" marker-start="url(#my-svg_class-extensionStart)"/><path d="M662.872,294.699L700.766,301.416C738.659,308.133,814.447,321.566,852.341,332.45C890.234,343.333,890.234,351.667,890.234,355.833L890.234,360" id="id_PhysicsBackend_MotorModel_4" class="edge-thickness-normal edge-pattern-solid relation" style=";;;" data-edge="true" data-et="edge" data-id="id_PhysicsBackend_MotorModel_4" data-points="W3sieCI6NjQ1Ljg4NjcxODc1LCJ5IjoyOTEuNjg4NTg3Mjc3MjMzNn0seyJ4Ijo4OTAuMjM0Mzc1LCJ5IjozMzV9LHsieCI6ODkwLjIzNDM3NSwieSI6MzYwfV0=" marker-start="url(#my-svg_class-compositionStart)"/><path d="M890.234,503.25L890.234,504.542C890.234,505.833,890.234,508.417,890.234,513.875C890.234,519.333,890.234,527.667,890.234,531.833L890.234,536" id="id_MotorModel_MotorSim_5" class="edge-thickness-normal edge-pattern-solid relation" style=";;;" data-edge="true" data-et="edge" data-id="id_MotorModel_MotorSim_5" data-points="W3sieCI6ODkwLjIzNDM3NSwieSI6NDg2fSx7IngiOjg5MC4yMzQzNzUsInkiOjUxMX0seyJ4Ijo4OTAuMjM0Mzc1LCJ5Ijo1MzZ9XQ==" marker-start="url(#my-svg_class-compositionStart)"/><path d="M393.77,151.25L393.77,152.542C393.77,153.833,393.77,156.417,393.77,161.875C393.77,167.333,393.77,175.667,393.77,179.833L393.77,184" id="id_MultiRobotWorld_PhysicsBackend_6" class="edge-thickness-normal edge-pattern-solid relation" style=";;;" data-edge="true" data-et="edge" data-id="id_MultiRobotWorld_PhysicsBackend_6" data-points="W3sieCI6MzkzLjc2OTUzMTI1LCJ5IjoxMzR9LHsieCI6MzkzLjc2OTUzMTI1LCJ5IjoxNTl9LHsieCI6MzkzLjc2OTUzMTI1LCJ5IjoxODR9XQ==" marker-start="url(#my-svg_class-aggregationStart)"/></g><g class="edgeLabels"><g class="edgeLabel"><g class="label" data-id="id_PhysicsBackend_PymunkBackend_1" transform="translate(0, 0)"><foreignObject width="0" height="0"><div xmlns="http://www.w3.org/1999/xhtml" class="labelBkg" style="display: table-cell; white-space: nowrap; line-height: 1.5; max-width: 200px; text-align: center;"><span class="edgeLabel"></span></div></foreignObject></g></g><g class="edgeLabel"><g class="label" data-id="id_PhysicsBackend_PyBulletBackend_2" transform="translate(0, 0)"><foreignObject width="0" height="0"><div xmlns="http://www.w3.org/1999/xhtml" class="labelBkg" style="display: table-cell; white-space: nowrap; line-height: 1.5; max-width: 200px; text-align: center;"><span class="edgeLabel"></span></div></foreignObject></g></g><g class="edgeLabel"><g class="label" data-id="id_PhysicsBackend_KinematicBackend_3" transform="translate(0, 0)"><foreignObject width="0" height="0"><div xmlns="http://www.w3.org/1999/xhtml" class="labelBkg" style="display: table-cell; white-space: nowrap; line-height: 1.5; max-width: 200px; text-align: center;"><span class="edgeLabel"></span></div></foreignObject></g></g><g class="edgeLabel"><g class="label" data-id="id_PhysicsBackend_MotorModel_4" transform="translate(0, 0)"><foreignObject width="0" height="0"><div xmlns="http://www.w3.org/1999/xhtml" class="labelBkg" style="display: table-cell; white-space: nowrap; line-height: 1.5; max-width: 200px; text-align: center;"><span class="edgeLabel"></span></div></foreignObject></g></g><g class="edgeLabel"><g class="label" data-id="id_MotorModel_MotorSim_5" transform="translate(0, 0)"><foreignObject width="0" height="0"><div xmlns="http://www.w3.org/1999/xhtml" class="labelBkg" style="display: table-cell; white-space: nowrap; line-height: 1.5; max-width: 200px; text-align: center;"><span class="edgeLabel"></span></div></foreignObject></g></g><g class="edgeLabel"><g class="label" data-id="id_MultiRobotWorld_PhysicsBackend_6" transform="translate(0, 0)"><foreignObject width="0" height="0"><div xmlns="http://www.w3.org/1999/xhtml" class="labelBkg" style="display: table-cell; white-space: nowrap; line-height: 1.5; max-width: 200px; text-align: center;"><span class="edgeLabel"></span></div></foreignObject></g></g></g><g class="nodes"><g class="node default" id="classId-PhysicsBackend-0" transform="translate(393.76953125, 247)"><g class="basic label-container"><path d="M-252.1171875 -63 L252.1171875 -63 L252.1171875 63 L-252.1171875 63" stroke="none" stroke-width="0" fill="#ECECFF" style=""/><path d="M-252.1171875 -63 C-145.39488145554517 -63, -38.67257541109035 -63, 252.1171875 -63 M-252.1171875 -63 C-81.15215936844581 -63, 89.81286876310838 -63, 252.1171875 -63 M252.1171875 -63 C252.1171875 -34.261769927924874, 252.1171875 -5.523539855849748, 252.1171875 63 M252.1171875 -63 C252.1171875 -32.516312490034196, 252.1171875 -2.032624980068398, 252.1171875 63 M252.1171875 63 C146.30421334130364 63, 40.49123918260727 63, -252.1171875 63 M252.1171875 63 C98.99343349431987 63, -54.13032051136025 63, -252.1171875 63 M-252.1171875 63 C-252.1171875 17.392206214381908, -252.1171875 -28.215587571236185, -252.1171875 -63 M-252.1171875 63 C-252.1171875 20.876770689066532, -252.1171875 -21.246458621866935, -252.1171875 -63" stroke="#9370DB" stroke-width="1.3" fill="none" stroke-dasharray="0 0" style=""/></g><g class="annotation-group text" transform="translate(0, -39)"/><g class="label-group text" transform="translate(-63.59375, -39)"><g class="label" style="font-weight: bolder" transform="translate(0,-12)"><foreignObject width="127.1875" height="24"><div xmlns="http://www.w3.org/1999/xhtml" style="display: table-cell; white-space: nowrap; line-height: 1.5; max-width: 155px; text-align: center;"><span class="nodeLabel markdown-node-label" style=""><p>PhysicsBackend</p></span></div></foreignObject></g></g><g class="members-group text" transform="translate(-240.1171875, 9)"/><g class="methods-group text" transform="translate(-240.1171875, 39)"><g class="label" style="" transform="translate(0,-12)"><foreignObject width="416.640625" height="24"><div xmlns="http://www.w3.org/1999/xhtml" style="display: table-cell; white-space: nowrap; line-height: 1.5; max-width: 424px; text-align: center;"><span class="nodeLabel markdown-node-label" style=""><p>+reset(seed,pose); +step(dt_ms,powers,events); +state(dt)</p></span></div></foreignObject></g></g><g class="divider" style=""><path d="M-252.1171875 -15 C-136.65471908697504 -15, -21.19225067395007 -15, 252.1171875 -15 M-252.1171875 -15 C-119.79525953073036 -15, 12.526668438539275 -15, 252.1171875 -15" stroke="#9370DB" stroke-width="1.3" fill="none" stroke-dasharray="0 0" style=""/></g><g class="divider" style=""><path d="M-252.1171875 9 C-148.31675521197064 9, -44.51632292394126 9, 252.1171875 9 M-252.1171875 9 C-74.38434094672223 9, 103.34850560655553 9, 252.1171875 9" stroke="#9370DB" stroke-width="1.3" fill="none" stroke-dasharray="0 0" style=""/></g></g><g class="node default" id="classId-PymunkBackend-1" transform="translate(84.46875, 423)"><g class="basic label-container"><path d="M-76.46875 -42 L76.46875 -42 L76.46875 42 L-76.46875 42" stroke="none" stroke-width="0" fill="#ECECFF" style=""/><path d="M-76.46875 -42 C-38.43786322219751 -42, -0.40697644439501346 -42, 76.46875 -42 M-76.46875 -42 C-31.237765415669166 -42, 13.993219168661668 -42, 76.46875 -42 M76.46875 -42 C76.46875 -9.944853110472458, 76.46875 22.110293779055084, 76.46875 42 M76.46875 -42 C76.46875 -19.619595037369642, 76.46875 2.760809925260716, 76.46875 42 M76.46875 42 C33.642713249455056 42, -9.183323501089887 42, -76.46875 42 M76.46875 42 C41.75194984495747 42, 7.035149689914945 42, -76.46875 42 M-76.46875 42 C-76.46875 9.00379744318024, -76.46875 -23.99240511363952, -76.46875 -42 M-76.46875 42 C-76.46875 22.846155450068505, -76.46875 3.6923109001370094, -76.46875 -42" stroke="#9370DB" stroke-width="1.3" fill="none" stroke-dasharray="0 0" style=""/></g><g class="annotation-group text" transform="translate(0, -18)"/><g class="label-group text" transform="translate(-64.46875, -18)"><g class="label" style="font-weight: bolder" transform="translate(0,-12)"><foreignObject width="128.9375" height="24"><div xmlns="http://www.w3.org/1999/xhtml" style="display: table-cell; white-space: nowrap; line-height: 1.5; max-width: 159px; text-align: center;"><span class="nodeLabel markdown-node-label" style=""><p>PymunkBackend</p></span></div></foreignObject></g></g><g class="members-group text" transform="translate(-64.46875, 30)"/><g class="methods-group text" transform="translate(-64.46875, 60)"/><g class="divider" style=""><path d="M-76.46875 6 C-20.03133760763999 6, 36.40607478472002 6, 76.46875 6 M-76.46875 6 C-37.09593315163447 6, 2.276883696731062 6, 76.46875 6" stroke="#9370DB" stroke-width="1.3" fill="none" stroke-dasharray="0 0" style=""/></g><g class="divider" style=""><path d="M-76.46875 24 C-40.131582030473446 24, -3.7944140609468917 24, 76.46875 24 M-76.46875 24 C-35.485000875285664 24, 5.498748249428672 24, 76.46875 24" stroke="#9370DB" stroke-width="1.3" fill="none" stroke-dasharray="0 0" style=""/></g></g><g class="node default" id="classId-PyBulletBackend-2" transform="translate(288.296875, 423)"><g class="basic label-container"><path d="M-77.359375 -42 L77.359375 -42 L77.359375 42 L-77.359375 42" stroke="none" stroke-width="0" fill="#ECECFF" style=""/><path d="M-77.359375 -42 C-19.774404870593443 -42, 37.810565258813114 -42, 77.359375 -42 M-77.359375 -42 C-32.42614209681707 -42, 12.507090806365866 -42, 77.359375 -42 M77.359375 -42 C77.359375 -16.551964798933117, 77.359375 8.896070402133766, 77.359375 42 M77.359375 -42 C77.359375 -14.284591960359865, 77.359375 13.43081607928027, 77.359375 42 M77.359375 42 C20.781182312659446 42, -35.79701037468111 42, -77.359375 42 M77.359375 42 C15.67075097126559 42, -46.01787305746882 42, -77.359375 42 M-77.359375 42 C-77.359375 13.724062910749048, -77.359375 -14.551874178501905, -77.359375 -42 M-77.359375 42 C-77.359375 19.910761740173175, -77.359375 -2.1784765196536497, -77.359375 -42" stroke="#9370DB" stroke-width="1.3" fill="none" stroke-dasharray="0 0" style=""/></g><g class="annotation-group text" transform="translate(0, -18)"/><g class="label-group text" transform="translate(-65.359375, -18)"><g class="label" style="font-weight: bolder" transform="translate(0,-12)"><foreignObject width="130.71875" height="24"><div xmlns="http://www.w3.org/1999/xhtml" style="display: table-cell; white-space: nowrap; line-height: 1.5; max-width: 162px; text-align: center;"><span class="nodeLabel markdown-node-label" style=""><p>PyBulletBackend</p></span></div></foreignObject></g></g><g class="members-group text" transform="translate(-65.359375, 30)"/><g class="methods-group text" transform="translate(-65.359375, 60)"/><g class="divider" style=""><path d="M-77.359375 6 C-18.09627586818297 6, 41.16682326363406 6, 77.359375 6 M-77.359375 6 C-36.855884696842544 6, 3.6476056063149116 6, 77.359375 6" stroke="#9370DB" stroke-width="1.3" fill="none" stroke-dasharray="0 0" style=""/></g><g class="divider" style=""><path d="M-77.359375 24 C-39.74135674934699 24, -2.1233384986939825 24, 77.359375 24 M-77.359375 24 C-36.00843065161235 24, 5.342513696775299 24, 77.359375 24" stroke="#9370DB" stroke-width="1.3" fill="none" stroke-dasharray="0 0" style=""/></g></g><g class="node default" id="classId-KinematicBackend-3" transform="translate(499.2421875, 423)"><g class="basic label-container"><path d="M-83.5859375 -42 L83.5859375 -42 L83.5859375 42 L-83.5859375 42" stroke="none" stroke-width="0" fill="#ECECFF" style=""/><path d="M-83.5859375 -42 C-34.87754012528589 -42, 13.83085724942822 -42, 83.5859375 -42 M-83.5859375 -42 C-22.525415008948222 -42, 38.535107482103555 -42, 83.5859375 -42 M83.5859375 -42 C83.5859375 -20.37470699200489, 83.5859375 1.2505860159902227, 83.5859375 42 M83.5859375 -42 C83.5859375 -19.275676851403173, 83.5859375 3.4486462971936547, 83.5859375 42 M83.5859375 42 C49.514731894734524 42, 15.443526289469048 42, -83.5859375 42 M83.5859375 42 C48.10272824681681 42, 12.61951899363362 42, -83.5859375 42 M-83.5859375 42 C-83.5859375 17.693970008404307, -83.5859375 -6.612059983191386, -83.5859375 -42 M-83.5859375 42 C-83.5859375 8.678238295528224, -83.5859375 -24.64352340894355, -83.5859375 -42" stroke="#9370DB" stroke-width="1.3" fill="none" stroke-dasharray="0 0" style=""/></g><g class="annotation-group text" transform="translate(0, -18)"/><g class="label-group text" transform="translate(-71.5859375, -18)"><g class="label" style="font-weight: bolder" transform="translate(0,-12)"><foreignObject width="143.171875" height="24"><div xmlns="http://www.w3.org/1999/xhtml" style="display: table-cell; white-space: nowrap; line-height: 1.5; max-width: 173px; text-align: center;"><span class="nodeLabel markdown-node-label" style=""><p>KinematicBackend</p></span></div></foreignObject></g></g><g class="members-group text" transform="translate(-71.5859375, 30)"/><g class="methods-group text" transform="translate(-71.5859375, 60)"/><g class="divider" style=""><path d="M-83.5859375 6 C-32.03236957417794 6, 19.521198351644117 6, 83.5859375 6 M-83.5859375 6 C-37.30624362840471 6, 8.973450243190584 6, 83.5859375 6" stroke="#9370DB" stroke-width="1.3" fill="none" stroke-dasharray="0 0" style=""/></g><g class="divider" style=""><path d="M-83.5859375 24 C-29.816317306346896 24, 23.953302887306208 24, 83.5859375 24 M-83.5859375 24 C-25.182105722508034 24, 33.22172605498393 24, 83.5859375 24" stroke="#9370DB" stroke-width="1.3" fill="none" stroke-dasharray="0 0" style=""/></g></g><g class="node default" id="classId-MotorModel-4" transform="translate(890.234375, 423)"><g class="basic label-container"><path d="M-257.40625 -63 L257.40625 -63 L257.40625 63 L-257.40625 63" stroke="none" stroke-width="0" fill="#ECECFF" style=""/><path d="M-257.40625 -63 C-109.12636353106495 -63, 39.15352293787009 -63, 257.40625 -63 M-257.40625 -63 C-116.76716974827542 -63, 23.871910503449158 -63, 257.40625 -63 M257.40625 -63 C257.40625 -30.099355763674787, 257.40625 2.801288472650427, 257.40625 63 M257.40625 -63 C257.40625 -36.0917242549292, 257.40625 -9.183448509858394, 257.40625 63 M257.40625 63 C141.16769467619605 63, 24.92913935239207 63, -257.40625 63 M257.40625 63 C58.323795438479095 63, -140.7586591230418 63, -257.40625 63 M-257.40625 63 C-257.40625 28.54634491352011, -257.40625 -5.907310172959782, -257.40625 -63 M-257.40625 63 C-257.40625 28.578776796388752, -257.40625 -5.842446407222496, -257.40625 -63" stroke="#9370DB" stroke-width="1.3" fill="none" stroke-dasharray="0 0" style=""/></g><g class="annotation-group text" transform="translate(0, -39)"/><g class="label-group text" transform="translate(-45.328125, -39)"><g class="label" style="font-weight: bolder" transform="translate(0,-12)"><foreignObject width="90.65625" height="24"><div xmlns="http://www.w3.org/1999/xhtml" style="display: table-cell; white-space: nowrap; line-height: 1.5; max-width: 132px; text-align: center;"><span class="nodeLabel markdown-node-label" style=""><p>MotorModel</p></span></div></foreignObject></g></g><g class="members-group text" transform="translate(-245.40625, 9)"/><g class="methods-group text" transform="translate(-245.40625, 39)"><g class="label" style="" transform="translate(0,-12)"><foreignObject width="445.484375" height="24"><div xmlns="http://www.w3.org/1999/xhtml" style="display: table-cell; white-space: nowrap; line-height: 1.5; max-width: 468px; text-align: center;"><span class="nodeLabel markdown-node-label" style=""><p>+MecanumKinematics kin; +MotorSim motors; +step(); +state()</p></span></div></foreignObject></g></g><g class="divider" style=""><path d="M-257.40625 -15 C-153.32687179204305 -15, -49.2474935840861 -15, 257.40625 -15 M-257.40625 -15 C-78.87411795186247 -15, 99.65801409627505 -15, 257.40625 -15" stroke="#9370DB" stroke-width="1.3" fill="none" stroke-dasharray="0 0" style=""/></g><g class="divider" style=""><path d="M-257.40625 9 C-140.52159210695766 9, -23.636934213915282 9, 257.40625 9 M-257.40625 9 C-127.65313662262372 9, 2.0999767547525607 9, 257.40625 9" stroke="#9370DB" stroke-width="1.3" fill="none" stroke-dasharray="0 0" style=""/></g></g><g class="node default" id="classId-MotorSim-5" transform="translate(890.234375, 599)"><g class="basic label-container"><path d="M-238.78125 -63 L238.78125 -63 L238.78125 63 L-238.78125 63" stroke="none" stroke-width="0" fill="#ECECFF" style=""/><path d="M-238.78125 -63 C-88.54293983054396 -63, 61.695370338912085 -63, 238.78125 -63 M-238.78125 -63 C-75.47484388844737 -63, 87.83156222310527 -63, 238.78125 -63 M238.78125 -63 C238.78125 -13.831636052082864, 238.78125 35.33672789583427, 238.78125 63 M238.78125 -63 C238.78125 -18.83528464138753, 238.78125 25.329430717224938, 238.78125 63 M238.78125 63 C68.67219785264487 63, -101.43685429471026 63, -238.78125 63 M238.78125 63 C103.51481490061164 63, -31.75162019877672 63, -238.78125 63 M-238.78125 63 C-238.78125 19.036716783653468, -238.78125 -24.926566432693065, -238.78125 -63 M-238.78125 63 C-238.78125 35.649252832255925, -238.78125 8.298505664511858, -238.78125 -63" stroke="#9370DB" stroke-width="1.3" fill="none" stroke-dasharray="0 0" style=""/></g><g class="annotation-group text" transform="translate(0, -39)"/><g class="label-group text" transform="translate(-36.890625, -39)"><g class="label" style="font-weight: bolder" transform="translate(0,-12)"><foreignObject width="73.78125" height="24"><div xmlns="http://www.w3.org/1999/xhtml" style="display: table-cell; white-space: nowrap; line-height: 1.5; max-width: 116px; text-align: center;"><span class="nodeLabel markdown-node-label" style=""><p>MotorSim</p></span></div></foreignObject></g></g><g class="members-group text" transform="translate(-226.78125, 9)"/><g class="methods-group text" transform="translate(-226.78125, 39)"><g class="label" style="" transform="translate(0,-12)"><foreignObject width="416.671875" height="24"><div xmlns="http://www.w3.org/1999/xhtml" style="display: table-cell; white-space: nowrap; line-height: 1.5; max-width: 433px; text-align: center;"><span class="nodeLabel markdown-node-label" style=""><p>+target_rpm(power); +step(power,dt); +advance_encoder()</p></span></div></foreignObject></g></g><g class="divider" style=""><path d="M-238.78125 -15 C-50.8805950382519 -15, 137.0200599234962 -15, 238.78125 -15 M-238.78125 -15 C-137.0041930514801 -15, -35.22713610296017 -15, 238.78125 -15" stroke="#9370DB" stroke-width="1.3" fill="none" stroke-dasharray="0 0" style=""/></g><g class="divider" style=""><path d="M-238.78125 9 C-59.855946940113995 9, 119.06935611977201 9, 238.78125 9 M-238.78125 9 C-87.9027169466105 9, 62.97581610677901 9, 238.78125 9" stroke="#9370DB" stroke-width="1.3" fill="none" stroke-dasharray="0 0" style=""/></g></g><g class="node default" id="classId-MultiRobotWorld-6" transform="translate(393.76953125, 71)"><g class="basic label-container"><path d="M-166.8671875 -63 L166.8671875 -63 L166.8671875 63 L-166.8671875 63" stroke="none" stroke-width="0" fill="#ECECFF" style=""/><path d="M-166.8671875 -63 C-66.12273690159238 -63, 34.62171369681525 -63, 166.8671875 -63 M-166.8671875 -63 C-85.64901468504306 -63, -4.4308418700861125 -63, 166.8671875 -63 M166.8671875 -63 C166.8671875 -21.77177571625903, 166.8671875 19.456448567481942, 166.8671875 63 M166.8671875 -63 C166.8671875 -33.52970264786727, 166.8671875 -4.059405295734543, 166.8671875 63 M166.8671875 63 C34.78852076633558 63, -97.29014596732884 63, -166.8671875 63 M166.8671875 63 C61.63210488591841 63, -43.60297772816318 63, -166.8671875 63 M-166.8671875 63 C-166.8671875 26.23696837495404, -166.8671875 -10.526063250091923, -166.8671875 -63 M-166.8671875 63 C-166.8671875 30.00270653217052, -166.8671875 -2.9945869356589583, -166.8671875 -63" stroke="#9370DB" stroke-width="1.3" fill="none" stroke-dasharray="0 0" style=""/></g><g class="annotation-group text" transform="translate(0, -39)"/><g class="label-group text" transform="translate(-64.28125, -39)"><g class="label" style="font-weight: bolder" transform="translate(0,-12)"><foreignObject width="128.5625" height="24"><div xmlns="http://www.w3.org/1999/xhtml" style="display: table-cell; white-space: nowrap; line-height: 1.5; max-width: 164px; text-align: center;"><span class="nodeLabel markdown-node-label" style=""><p>MultiRobotWorld</p></span></div></foreignObject></g></g><g class="members-group text" transform="translate(-154.8671875, 9)"/><g class="methods-group text" transform="translate(-154.8671875, 39)"><g class="label" style="" transform="translate(0,-12)"><foreignObject width="245.453125" height="24"><div xmlns="http://www.w3.org/1999/xhtml" style="display: table-cell; white-space: nowrap; line-height: 1.5; max-width: 277px; text-align: center;"><span class="nodeLabel markdown-node-label" style=""><p>+backends[]; +step(powers,dt_ms)</p></span></div></foreignObject></g></g><g class="divider" style=""><path d="M-166.8671875 -15 C-54.138547136832 -15, 58.590093226335995 -15, 166.8671875 -15 M-166.8671875 -15 C-46.78884188613192 -15, 73.28950372773616 -15, 166.8671875 -15" stroke="#9370DB" stroke-width="1.3" fill="none" stroke-dasharray="0 0" style=""/></g><g class="divider" style=""><path d="M-166.8671875 9 C-93.77849669700258 9, -20.68980589400516 9, 166.8671875 9 M-166.8671875 9 C-63.618626017402605 9, 39.62993546519479 9, 166.8671875 9" stroke="#9370DB" stroke-width="1.3" fill="none" stroke-dasharray="0 0" style=""/></g></g></g></g></g></svg>